solid OpenSCAD_Model
  facet normal -0.968815 0.247784 0
    outer loop
      vertex 10 77.5237 2
      vertex 12.3302 86.6346 15
      vertex 12.3302 86.6346 2
    endloop
  endfacet
  facet normal -0.968815 0.247784 0
    outer loop
      vertex 12.3302 86.6346 15
      vertex 10 77.5237 2
      vertex 10 77.5237 15
    endloop
  endfacet
  facet normal -0.30427 0.952586 0
    outer loop
      vertex 22.3053 89.8208 2
      vertex 12.3302 86.6346 15
      vertex 22.3053 89.8208 15
    endloop
  endfacet
  facet normal -0.30427 0.952586 0
    outer loop
      vertex 12.3302 86.6346 15
      vertex 22.3053 89.8208 2
      vertex 12.3302 86.6346 2
    endloop
  endfacet
  facet normal -0.246664 0.969101 0
    outer loop
      vertex 33.5127 92.6734 2
      vertex 22.3053 89.8208 15
      vertex 33.5127 92.6734 15
    endloop
  endfacet
  facet normal -0.246664 0.969101 0
    outer loop
      vertex 22.3053 89.8208 15
      vertex 33.5127 92.6734 2
      vertex 22.3053 89.8208 2
    endloop
  endfacet
  facet normal -0.146682 0.989184 0
    outer loop
      vertex 39.4391 93.5522 2
      vertex 33.5127 92.6734 15
      vertex 39.4391 93.5522 15
    endloop
  endfacet
  facet normal -0.146682 0.989184 0
    outer loop
      vertex 33.5127 92.6734 15
      vertex 39.4391 93.5522 2
      vertex 33.5127 92.6734 2
    endloop
  endfacet
  facet normal -0.0362131 0.999344 0
    outer loop
      vertex 41.346 93.6213 2
      vertex 39.4391 93.5522 15
      vertex 41.346 93.6213 15
    endloop
  endfacet
  facet normal -0.0362131 0.999344 0
    outer loop
      vertex 39.4391 93.5522 15
      vertex 41.346 93.6213 2
      vertex 39.4391 93.5522 2
    endloop
  endfacet
  facet normal 0.0906033 0.995887 -0
    outer loop
      vertex 42.9409 93.4762 2
      vertex 41.346 93.6213 15
      vertex 42.9409 93.4762 15
    endloop
  endfacet
  facet normal 0.0906033 0.995887 0
    outer loop
      vertex 41.346 93.6213 15
      vertex 42.9409 93.4762 2
      vertex 41.346 93.6213 2
    endloop
  endfacet
  facet normal 0.241808 0.970324 -0
    outer loop
      vertex 44.0713 93.1945 2
      vertex 42.9409 93.4762 15
      vertex 44.0713 93.1945 15
    endloop
  endfacet
  facet normal 0.241808 0.970324 0
    outer loop
      vertex 42.9409 93.4762 15
      vertex 44.0713 93.1945 2
      vertex 42.9409 93.4762 2
    endloop
  endfacet
  facet normal 0.393543 0.919306 -0
    outer loop
      vertex 45.1928 92.7144 2
      vertex 44.0713 93.1945 15
      vertex 45.1928 92.7144 15
    endloop
  endfacet
  facet normal 0.393543 0.919306 0
    outer loop
      vertex 44.0713 93.1945 15
      vertex 45.1928 92.7144 2
      vertex 44.0713 93.1945 2
    endloop
  endfacet
  facet normal 0.542766 0.839884 -0
    outer loop
      vertex 46.2257 92.0469 2
      vertex 45.1928 92.7144 15
      vertex 46.2257 92.0469 15
    endloop
  endfacet
  facet normal 0.542766 0.839884 0
    outer loop
      vertex 45.1928 92.7144 15
      vertex 46.2257 92.0469 2
      vertex 45.1928 92.7144 2
    endloop
  endfacet
  facet normal 0.669685 0.742645 -0
    outer loop
      vertex 47.097 91.2612 2
      vertex 46.2257 92.0469 15
      vertex 47.097 91.2612 15
    endloop
  endfacet
  facet normal 0.669685 0.742645 0
    outer loop
      vertex 46.2257 92.0469 15
      vertex 47.097 91.2612 2
      vertex 46.2257 92.0469 2
    endloop
  endfacet
  facet normal 0.777508 0.628873 0
    outer loop
      vertex 47.8095 90.3803 15
      vertex 47.097 91.2612 2
      vertex 47.097 91.2612 15
    endloop
  endfacet
  facet normal 0.777508 0.628873 0
    outer loop
      vertex 47.097 91.2612 2
      vertex 47.8095 90.3803 15
      vertex 47.8095 90.3803 2
    endloop
  endfacet
  facet normal 0.869807 0.493392 0
    outer loop
      vertex 48.3962 89.346 15
      vertex 47.8095 90.3803 2
      vertex 47.8095 90.3803 15
    endloop
  endfacet
  facet normal 0.869807 0.493392 0
    outer loop
      vertex 47.8095 90.3803 2
      vertex 48.3962 89.346 15
      vertex 48.3962 89.346 2
    endloop
  endfacet
  facet normal 0.922481 0.386042 0
    outer loop
      vertex 49.0397 87.8083 15
      vertex 48.3962 89.346 2
      vertex 48.3962 89.346 15
    endloop
  endfacet
  facet normal 0.922481 0.386042 0
    outer loop
      vertex 48.3962 89.346 2
      vertex 49.0397 87.8083 15
      vertex 49.0397 87.8083 2
    endloop
  endfacet
  facet normal 0.892933 0.45019 0
    outer loop
      vertex 49.5837 86.7293 15
      vertex 49.0397 87.8083 2
      vertex 49.0397 87.8083 15
    endloop
  endfacet
  facet normal 0.892933 0.45019 0
    outer loop
      vertex 49.0397 87.8083 2
      vertex 49.5837 86.7293 15
      vertex 49.5837 86.7293 2
    endloop
  endfacet
  facet normal 0.804114 0.594475 0
    outer loop
      vertex 50.1843 85.9169 15
      vertex 49.5837 86.7293 2
      vertex 49.5837 86.7293 15
    endloop
  endfacet
  facet normal 0.804114 0.594475 0
    outer loop
      vertex 49.5837 86.7293 2
      vertex 50.1843 85.9169 15
      vertex 50.1843 85.9169 2
    endloop
  endfacet
  facet normal 0.706773 0.707441 -0
    outer loop
      vertex 51.1376 84.9645 2
      vertex 50.1843 85.9169 15
      vertex 51.1376 84.9645 15
    endloop
  endfacet
  facet normal 0.706773 0.707441 0
    outer loop
      vertex 50.1843 85.9169 15
      vertex 51.1376 84.9645 2
      vertex 50.1843 85.9169 2
    endloop
  endfacet
  facet normal 0.593877 0.804556 -0
    outer loop
      vertex 52.8011 83.7366 2
      vertex 51.1376 84.9645 15
      vertex 52.8011 83.7366 15
    endloop
  endfacet
  facet normal 0.593877 0.804556 0
    outer loop
      vertex 51.1376 84.9645 15
      vertex 52.8011 83.7366 2
      vertex 51.1376 84.9645 2
    endloop
  endfacet
  facet normal 0.467207 0.884148 -0
    outer loop
      vertex 55.1721 82.4837 2
      vertex 52.8011 83.7366 15
      vertex 55.1721 82.4837 15
    endloop
  endfacet
  facet normal 0.467207 0.884148 0
    outer loop
      vertex 52.8011 83.7366 15
      vertex 55.1721 82.4837 2
      vertex 52.8011 83.7366 2
    endloop
  endfacet
  facet normal 0.345219 0.938522 -0
    outer loop
      vertex 58.4717 81.27 2
      vertex 55.1721 82.4837 15
      vertex 58.4717 81.27 15
    endloop
  endfacet
  facet normal 0.345219 0.938522 0
    outer loop
      vertex 55.1721 82.4837 15
      vertex 58.4717 81.27 2
      vertex 55.1721 82.4837 2
    endloop
  endfacet
  facet normal 0.256366 0.96658 -0
    outer loop
      vertex 65.8321 79.3178 2
      vertex 58.4717 81.27 15
      vertex 65.8321 79.3178 15
    endloop
  endfacet
  facet normal 0.256366 0.96658 0
    outer loop
      vertex 58.4717 81.27 15
      vertex 65.8321 79.3178 2
      vertex 58.4717 81.27 2
    endloop
  endfacet
  facet normal 0.151949 0.988388 -0
    outer loop
      vertex 72.0539 78.3613 2
      vertex 65.8321 79.3178 15
      vertex 72.0539 78.3613 15
    endloop
  endfacet
  facet normal 0.151949 0.988388 0
    outer loop
      vertex 65.8321 79.3178 15
      vertex 72.0539 78.3613 2
      vertex 65.8321 79.3178 2
    endloop
  endfacet
  facet normal -0.00708397 0.999975 0
    outer loop
      vertex 76.0205 78.3894 2
      vertex 72.0539 78.3613 15
      vertex 76.0205 78.3894 15
    endloop
  endfacet
  facet normal -0.00708397 0.999975 0
    outer loop
      vertex 72.0539 78.3613 15
      vertex 76.0205 78.3894 2
      vertex 72.0539 78.3613 2
    endloop
  endfacet
  facet normal -0.169451 0.985539 0
    outer loop
      vertex 79.0623 78.9124 2
      vertex 76.0205 78.3894 15
      vertex 79.0623 78.9124 15
    endloop
  endfacet
  facet normal -0.169451 0.985539 0
    outer loop
      vertex 76.0205 78.3894 15
      vertex 79.0623 78.9124 2
      vertex 76.0205 78.3894 2
    endloop
  endfacet
  facet normal -0.286496 0.958081 0
    outer loop
      vertex 80.3314 79.2919 2
      vertex 79.0623 78.9124 15
      vertex 80.3314 79.2919 15
    endloop
  endfacet
  facet normal -0.286496 0.958081 0
    outer loop
      vertex 79.0623 78.9124 15
      vertex 80.3314 79.2919 2
      vertex 79.0623 78.9124 2
    endloop
  endfacet
  facet normal -0.382029 0.92415 0
    outer loop
      vertex 81.0218 79.5773 2
      vertex 80.3314 79.2919 15
      vertex 81.0218 79.5773 15
    endloop
  endfacet
  facet normal -0.382029 0.92415 0
    outer loop
      vertex 80.3314 79.2919 15
      vertex 81.0218 79.5773 2
      vertex 80.3314 79.2919 2
    endloop
  endfacet
  facet normal -0.520811 0.853672 0
    outer loop
      vertex 81.2598 79.7225 2
      vertex 81.0218 79.5773 15
      vertex 81.2598 79.7225 15
    endloop
  endfacet
  facet normal -0.520811 0.853672 0
    outer loop
      vertex 81.0218 79.5773 15
      vertex 81.2598 79.7225 2
      vertex 81.0218 79.5773 2
    endloop
  endfacet
  facet normal -0.644049 0.764984 0
    outer loop
      vertex 81.3142 79.7683 2
      vertex 81.2598 79.7225 15
      vertex 81.3142 79.7683 15
    endloop
  endfacet
  facet normal -0.644049 0.764984 0
    outer loop
      vertex 81.2598 79.7225 15
      vertex 81.3142 79.7683 2
      vertex 81.2598 79.7225 2
    endloop
  endfacet
  facet normal -0.752442 0.658659 0
    outer loop
      vertex 81.3142 79.7683 2
      vertex 81.3444 79.8028 15
      vertex 81.3444 79.8028 2
    endloop
  endfacet
  facet normal -0.752442 0.658659 0
    outer loop
      vertex 81.3444 79.8028 15
      vertex 81.3142 79.7683 2
      vertex 81.3142 79.7683 15
    endloop
  endfacet
  facet normal -0.84689 0.531768 0
    outer loop
      vertex 81.3444 79.8028 2
      vertex 81.3822 79.863 15
      vertex 81.3822 79.863 2
    endloop
  endfacet
  facet normal -0.84689 0.531768 0
    outer loop
      vertex 81.3822 79.863 15
      vertex 81.3444 79.8028 2
      vertex 81.3444 79.8028 15
    endloop
  endfacet
  facet normal -0.91724 0.398335 0
    outer loop
      vertex 81.3822 79.863 2
      vertex 81.5051 80.146 15
      vertex 81.5051 80.146 2
    endloop
  endfacet
  facet normal -0.91724 0.398335 0
    outer loop
      vertex 81.5051 80.146 15
      vertex 81.3822 79.863 2
      vertex 81.3822 79.863 15
    endloop
  endfacet
  facet normal -0.959225 0.282643 0
    outer loop
      vertex 81.5051 80.146 2
      vertex 81.7781 81.0725 15
      vertex 81.7781 81.0725 2
    endloop
  endfacet
  facet normal -0.959225 0.282643 0
    outer loop
      vertex 81.7781 81.0725 15
      vertex 81.5051 80.146 2
      vertex 81.5051 80.146 15
    endloop
  endfacet
  facet normal -0.959043 0.28326 0
    outer loop
      vertex 81.7781 81.0725 2
      vertex 82.5045 83.5319 15
      vertex 82.5045 83.5319 2
    endloop
  endfacet
  facet normal -0.959043 0.28326 0
    outer loop
      vertex 82.5045 83.5319 15
      vertex 81.7781 81.0725 2
      vertex 81.7781 81.0725 15
    endloop
  endfacet
  facet normal -0.922207 0.386696 0
    outer loop
      vertex 82.5045 83.5319 2
      vertex 83.4831 85.8657 15
      vertex 83.4831 85.8657 2
    endloop
  endfacet
  facet normal -0.922207 0.386696 0
    outer loop
      vertex 83.4831 85.8657 15
      vertex 82.5045 83.5319 2
      vertex 82.5045 83.5319 15
    endloop
  endfacet
  facet normal -0.850804 0.525483 0
    outer loop
      vertex 83.4831 85.8657 2
      vertex 84.4219 87.3857 15
      vertex 84.4219 87.3857 2
    endloop
  endfacet
  facet normal -0.850804 0.525483 0
    outer loop
      vertex 84.4219 87.3857 15
      vertex 83.4831 85.8657 2
      vertex 83.4831 85.8657 15
    endloop
  endfacet
  facet normal -0.752479 0.658616 0
    outer loop
      vertex 84.4219 87.3857 2
      vertex 85.4232 88.5297 15
      vertex 85.4232 88.5297 2
    endloop
  endfacet
  facet normal -0.752479 0.658616 0
    outer loop
      vertex 85.4232 88.5297 15
      vertex 84.4219 87.3857 2
      vertex 84.4219 87.3857 15
    endloop
  endfacet
  facet normal -0.630836 0.775916 0
    outer loop
      vertex 86.5046 89.4089 2
      vertex 85.4232 88.5297 15
      vertex 86.5046 89.4089 15
    endloop
  endfacet
  facet normal -0.630836 0.775916 0
    outer loop
      vertex 85.4232 88.5297 15
      vertex 86.5046 89.4089 2
      vertex 85.4232 88.5297 2
    endloop
  endfacet
  facet normal -0.513741 0.857945 0
    outer loop
      vertex 87.8598 90.2204 2
      vertex 86.5046 89.4089 15
      vertex 87.8598 90.2204 15
    endloop
  endfacet
  facet normal -0.513741 0.857945 0
    outer loop
      vertex 86.5046 89.4089 15
      vertex 87.8598 90.2204 2
      vertex 86.5046 89.4089 2
    endloop
  endfacet
  facet normal -0.382105 0.924119 0
    outer loop
      vertex 91.4162 91.6909 2
      vertex 87.8598 90.2204 15
      vertex 91.4162 91.6909 15
    endloop
  endfacet
  facet normal -0.382105 0.924119 0
    outer loop
      vertex 87.8598 90.2204 15
      vertex 91.4162 91.6909 2
      vertex 87.8598 90.2204 2
    endloop
  endfacet
  facet normal -0.30405 0.952656 0
    outer loop
      vertex 97.8227 93.7356 2
      vertex 91.4162 91.6909 15
      vertex 97.8227 93.7356 15
    endloop
  endfacet
  facet normal -0.30405 0.952656 0
    outer loop
      vertex 91.4162 91.6909 15
      vertex 97.8227 93.7356 2
      vertex 91.4162 91.6909 2
    endloop
  endfacet
  facet normal -0.136316 0.990665 0
    outer loop
      vertex 104.516 94.6566 2
      vertex 97.8227 93.7356 15
      vertex 104.516 94.6566 15
    endloop
  endfacet
  facet normal -0.136316 0.990665 0
    outer loop
      vertex 97.8227 93.7356 15
      vertex 104.516 94.6566 2
      vertex 97.8227 93.7356 2
    endloop
  endfacet
  facet normal -0.0785053 0.996914 0
    outer loop
      vertex 114.774 95.4644 2
      vertex 104.516 94.6566 15
      vertex 114.774 95.4644 15
    endloop
  endfacet
  facet normal -0.0785053 0.996914 0
    outer loop
      vertex 104.516 94.6566 15
      vertex 114.774 95.4644 2
      vertex 104.516 94.6566 2
    endloop
  endfacet
  facet normal -0.072843 0.997343 0
    outer loop
      vertex 121.906 95.9853 2
      vertex 114.774 95.4644 15
      vertex 121.906 95.9853 15
    endloop
  endfacet
  facet normal -0.072843 0.997343 0
    outer loop
      vertex 114.774 95.4644 15
      vertex 121.906 95.9853 2
      vertex 114.774 95.4644 2
    endloop
  endfacet
  facet normal -0.171019 0.985268 0
    outer loop
      vertex 123.609 96.2809 2
      vertex 121.906 95.9853 15
      vertex 123.609 96.2809 15
    endloop
  endfacet
  facet normal -0.171019 0.985268 0
    outer loop
      vertex 121.906 95.9853 15
      vertex 123.609 96.2809 2
      vertex 121.906 95.9853 2
    endloop
  endfacet
  facet normal -0.334116 0.942532 0
    outer loop
      vertex 126.138 97.1774 2
      vertex 123.609 96.2809 15
      vertex 126.138 97.1774 15
    endloop
  endfacet
  facet normal -0.334116 0.942532 0
    outer loop
      vertex 123.609 96.2809 15
      vertex 126.138 97.1774 2
      vertex 123.609 96.2809 2
    endloop
  endfacet
  facet normal -0.441612 0.897206 0
    outer loop
      vertex 130.72 99.4327 2
      vertex 126.138 97.1774 15
      vertex 130.72 99.4327 15
    endloop
  endfacet
  facet normal -0.441612 0.897206 0
    outer loop
      vertex 126.138 97.1774 15
      vertex 130.72 99.4327 2
      vertex 126.138 97.1774 2
    endloop
  endfacet
  facet normal -0.581576 0.813492 0
    outer loop
      vertex 132.336 100.588 2
      vertex 130.72 99.4327 15
      vertex 132.336 100.588 15
    endloop
  endfacet
  facet normal -0.581576 0.813492 0
    outer loop
      vertex 130.72 99.4327 15
      vertex 132.336 100.588 2
      vertex 130.72 99.4327 2
    endloop
  endfacet
  facet normal -0.702397 0.711785 0
    outer loop
      vertex 133.17 101.411 2
      vertex 132.336 100.588 15
      vertex 133.17 101.411 15
    endloop
  endfacet
  facet normal -0.702397 0.711785 0
    outer loop
      vertex 132.336 100.588 15
      vertex 133.17 101.411 2
      vertex 132.336 100.588 2
    endloop
  endfacet
  facet normal -0.810648 0.585534 0
    outer loop
      vertex 133.17 101.411 2
      vertex 133.659 102.088 15
      vertex 133.659 102.088 2
    endloop
  endfacet
  facet normal -0.810648 0.585534 0
    outer loop
      vertex 133.659 102.088 15
      vertex 133.17 101.411 2
      vertex 133.17 101.411 15
    endloop
  endfacet
  facet normal -0.899657 0.436598 0
    outer loop
      vertex 133.659 102.088 2
      vertex 133.989 102.768 15
      vertex 133.989 102.768 2
    endloop
  endfacet
  facet normal -0.899657 0.436598 0
    outer loop
      vertex 133.989 102.768 15
      vertex 133.659 102.088 2
      vertex 133.659 102.088 15
    endloop
  endfacet
  facet normal -0.956389 0.292096 0
    outer loop
      vertex 133.989 102.768 2
      vertex 134.474 104.356 15
      vertex 134.474 104.356 2
    endloop
  endfacet
  facet normal -0.956389 0.292096 0
    outer loop
      vertex 134.474 104.356 15
      vertex 133.989 102.768 2
      vertex 133.989 102.768 15
    endloop
  endfacet
  facet normal -0.970839 0.239734 0
    outer loop
      vertex 134.474 104.356 2
      vertex 135.058 106.721 15
      vertex 135.058 106.721 2
    endloop
  endfacet
  facet normal -0.970839 0.239734 0
    outer loop
      vertex 135.058 106.721 15
      vertex 134.474 104.356 2
      vertex 134.474 104.356 15
    endloop
  endfacet
  facet normal -0.923469 0.383673 0
    outer loop
      vertex 135.058 106.721 2
      vertex 135.434 107.626 15
      vertex 135.434 107.626 2
    endloop
  endfacet
  facet normal -0.923469 0.383673 0
    outer loop
      vertex 135.434 107.626 15
      vertex 135.058 106.721 2
      vertex 135.058 106.721 15
    endloop
  endfacet
  facet normal -0.848762 0.528774 0
    outer loop
      vertex 135.434 107.626 2
      vertex 135.667 108 15
      vertex 135.667 108 2
    endloop
  endfacet
  facet normal -0.848762 0.528774 0
    outer loop
      vertex 135.667 108 15
      vertex 135.434 107.626 2
      vertex 135.434 107.626 15
    endloop
  endfacet
  facet normal 0 -1 0
    outer loop
      vertex 10 108 2
      vertex 135.667 108 15
      vertex 10 108 15
    endloop
  endfacet
  facet normal 0 -1 -0
    outer loop
      vertex 135.667 108 15
      vertex 10 108 2
      vertex 135.667 108 2
    endloop
  endfacet
  facet normal 0 0 1
    outer loop
      vertex 130.72 99.4327 2
      vertex 134.474 104.356 2
      vertex 135.058 106.721 2
    endloop
  endfacet
  facet normal 0 -0 1
    outer loop
      vertex 132.336 100.588 2
      vertex 134.474 104.356 2
      vertex 130.72 99.4327 2
    endloop
  endfacet
  facet normal 0 -0 1
    outer loop
      vertex 133.17 101.411 2
      vertex 133.989 102.768 2
      vertex 132.336 100.588 2
    endloop
  endfacet
  facet normal 0 0 1
    outer loop
      vertex 133.989 102.768 2
      vertex 133.17 101.411 2
      vertex 133.659 102.088 2
    endloop
  endfacet
  facet normal 0 0 1
    outer loop
      vertex 121.906 95.9853 2
      vertex 135.058 106.721 2
      vertex 135.434 107.626 2
    endloop
  endfacet
  facet normal 0 0 1
    outer loop
      vertex 134.474 104.356 2
      vertex 132.336 100.588 2
      vertex 133.989 102.768 2
    endloop
  endfacet
  facet normal 0 0 1
    outer loop
      vertex 135.058 106.721 2
      vertex 126.138 97.1774 2
      vertex 130.72 99.4327 2
    endloop
  endfacet
  facet normal 0 0 1
    outer loop
      vertex 114.774 95.4644 2
      vertex 135.434 107.626 2
      vertex 135.667 108 2
    endloop
  endfacet
  facet normal 0 0 1
    outer loop
      vertex 135.058 106.721 2
      vertex 121.906 95.9853 2
      vertex 126.138 97.1774 2
    endloop
  endfacet
  facet normal 0 0 1
    outer loop
      vertex 126.138 97.1774 2
      vertex 121.906 95.9853 2
      vertex 123.609 96.2809 2
    endloop
  endfacet
  facet normal 0 0 1
    outer loop
      vertex 135.434 107.626 2
      vertex 114.774 95.4644 2
      vertex 121.906 95.9853 2
    endloop
  endfacet
  facet normal 0 0 1
    outer loop
      vertex 135.667 108 2
      vertex 104.516 94.6566 2
      vertex 114.774 95.4644 2
    endloop
  endfacet
  facet normal 0 0 1
    outer loop
      vertex 135.667 108 2
      vertex 97.8227 93.7356 2
      vertex 104.516 94.6566 2
    endloop
  endfacet
  facet normal -0 0 1
    outer loop
      vertex 10 108 2
      vertex 97.8227 93.7356 2
      vertex 135.667 108 2
    endloop
  endfacet
  facet normal 0 0 1
    outer loop
      vertex 80.3314 79.2919 2
      vertex 81.5051 80.146 2
      vertex 81.7781 81.0725 2
    endloop
  endfacet
  facet normal 0 0 1
    outer loop
      vertex 79.0623 78.9124 2
      vertex 81.7781 81.0725 2
      vertex 82.5045 83.5319 2
    endloop
  endfacet
  facet normal 0 0 1
    outer loop
      vertex 81.5051 80.146 2
      vertex 80.3314 79.2919 2
      vertex 81.0218 79.5773 2
    endloop
  endfacet
  facet normal 0 0 1
    outer loop
      vertex 81.5051 80.146 2
      vertex 81.0218 79.5773 2
      vertex 81.3822 79.863 2
    endloop
  endfacet
  facet normal 0 -0 1
    outer loop
      vertex 81.2598 79.7225 2
      vertex 81.3822 79.863 2
      vertex 81.0218 79.5773 2
    endloop
  endfacet
  facet normal 0 0 1
    outer loop
      vertex 81.3444 79.8028 2
      vertex 81.2598 79.7225 2
      vertex 81.3142 79.7683 2
    endloop
  endfacet
  facet normal 0 0 1
    outer loop
      vertex 81.3822 79.863 2
      vertex 81.2598 79.7225 2
      vertex 81.3444 79.8028 2
    endloop
  endfacet
  facet normal 0 0 1
    outer loop
      vertex 72.0539 78.3613 2
      vertex 82.5045 83.5319 2
      vertex 83.4831 85.8657 2
    endloop
  endfacet
  facet normal 0 0 1
    outer loop
      vertex 81.7781 81.0725 2
      vertex 79.0623 78.9124 2
      vertex 80.3314 79.2919 2
    endloop
  endfacet
  facet normal 0 0 1
    outer loop
      vertex 65.8321 79.3178 2
      vertex 83.4831 85.8657 2
      vertex 84.4219 87.3857 2
    endloop
  endfacet
  facet normal 0 0 1
    outer loop
      vertex 82.5045 83.5319 2
      vertex 76.0205 78.3894 2
      vertex 79.0623 78.9124 2
    endloop
  endfacet
  facet normal 0 0 1
    outer loop
      vertex 47.8095 90.3803 2
      vertex 84.4219 87.3857 2
      vertex 85.4232 88.5297 2
    endloop
  endfacet
  facet normal 0 0 1
    outer loop
      vertex 82.5045 83.5319 2
      vertex 72.0539 78.3613 2
      vertex 76.0205 78.3894 2
    endloop
  endfacet
  facet normal 0 0 1
    outer loop
      vertex 47.097 91.2612 2
      vertex 85.4232 88.5297 2
      vertex 86.5046 89.4089 2
    endloop
  endfacet
  facet normal 0 0 1
    outer loop
      vertex 83.4831 85.8657 2
      vertex 65.8321 79.3178 2
      vertex 72.0539 78.3613 2
    endloop
  endfacet
  facet normal 0 0 1
    outer loop
      vertex 46.2257 92.0469 2
      vertex 86.5046 89.4089 2
      vertex 87.8598 90.2204 2
    endloop
  endfacet
  facet normal 0 0 1
    outer loop
      vertex 84.4219 87.3857 2
      vertex 58.4717 81.27 2
      vertex 65.8321 79.3178 2
    endloop
  endfacet
  facet normal 0 0 1
    outer loop
      vertex 45.1928 92.7144 2
      vertex 87.8598 90.2204 2
      vertex 91.4162 91.6909 2
    endloop
  endfacet
  facet normal 0 -0 1
    outer loop
      vertex 44.0713 93.1945 2
      vertex 97.8227 93.7356 2
      vertex 10 108 2
    endloop
  endfacet
  facet normal 0 0 1
    outer loop
      vertex 85.4232 88.5297 2
      vertex 47.097 91.2612 2
      vertex 47.8095 90.3803 2
    endloop
  endfacet
  facet normal -0 -0 1
    outer loop
      vertex 48.3962 89.346 2
      vertex 58.4717 81.27 2
      vertex 47.8095 90.3803 2
    endloop
  endfacet
  facet normal 0 0 1
    outer loop
      vertex 58.4717 81.27 2
      vertex 48.3962 89.346 2
      vertex 55.1721 82.4837 2
    endloop
  endfacet
  facet normal -0 -0 1
    outer loop
      vertex 49.0397 87.8083 2
      vertex 52.8011 83.7366 2
      vertex 48.3962 89.346 2
    endloop
  endfacet
  facet normal 0 0 1
    outer loop
      vertex 52.8011 83.7366 2
      vertex 49.0397 87.8083 2
      vertex 51.1376 84.9645 2
    endloop
  endfacet
  facet normal 0 0 1
    outer loop
      vertex 51.1376 84.9645 2
      vertex 49.0397 87.8083 2
      vertex 50.1843 85.9169 2
    endloop
  endfacet
  facet normal 0 0 1
    outer loop
      vertex 50.1843 85.9169 2
      vertex 49.0397 87.8083 2
      vertex 49.5837 86.7293 2
    endloop
  endfacet
  facet normal 0 0 1
    outer loop
      vertex 55.1721 82.4837 2
      vertex 48.3962 89.346 2
      vertex 52.8011 83.7366 2
    endloop
  endfacet
  facet normal 0 0 1
    outer loop
      vertex 84.4219 87.3857 2
      vertex 47.8095 90.3803 2
      vertex 58.4717 81.27 2
    endloop
  endfacet
  facet normal 0 0 1
    outer loop
      vertex 86.5046 89.4089 2
      vertex 46.2257 92.0469 2
      vertex 47.097 91.2612 2
    endloop
  endfacet
  facet normal 0 0 1
    outer loop
      vertex 87.8598 90.2204 2
      vertex 45.1928 92.7144 2
      vertex 46.2257 92.0469 2
    endloop
  endfacet
  facet normal 0 0 1
    outer loop
      vertex 91.4162 91.6909 2
      vertex 44.0713 93.1945 2
      vertex 45.1928 92.7144 2
    endloop
  endfacet
  facet normal 0 0 1
    outer loop
      vertex 97.8227 93.7356 2
      vertex 44.0713 93.1945 2
      vertex 91.4162 91.6909 2
    endloop
  endfacet
  facet normal 0 0 1
    outer loop
      vertex 44.0713 93.1945 2
      vertex 10 108 2
      vertex 42.9409 93.4762 2
    endloop
  endfacet
  facet normal 0 0 1
    outer loop
      vertex 42.9409 93.4762 2
      vertex 10 108 2
      vertex 41.346 93.6213 2
    endloop
  endfacet
  facet normal 0 0 1
    outer loop
      vertex 41.346 93.6213 2
      vertex 10 108 2
      vertex 39.4391 93.5522 2
    endloop
  endfacet
  facet normal 0 0 1
    outer loop
      vertex 33.5127 92.6734 2
      vertex 20.1 95 2
      vertex 22.3053 89.8208 2
    endloop
  endfacet
  facet normal -0 -0 1
    outer loop
      vertex 17.5616 99.7145 2
      vertex 39.4391 93.5522 2
      vertex 10 108 2
    endloop
  endfacet
  facet normal 0 0 1
    outer loop
      vertex 33.5127 92.6734 2
      vertex 19.7955 96.9134 2
      vertex 20.1 95 2
    endloop
  endfacet
  facet normal 0 0 1
    outer loop
      vertex 33.5127 92.6734 2
      vertex 19.4819 97.5 2
      vertex 19.7955 96.9134 2
    endloop
  endfacet
  facet normal 0 0 1
    outer loop
      vertex 33.5127 92.6734 2
      vertex 18.9284 98.5355 2
      vertex 19.4819 97.5 2
    endloop
  endfacet
  facet normal 0 0 1
    outer loop
      vertex 33.5127 92.6734 2
      vertex 18.8593 98.6306 2
      vertex 18.9284 98.5355 2
    endloop
  endfacet
  facet normal -0 -0 1
    outer loop
      vertex 18.8593 98.6306 2
      vertex 39.4391 93.5522 2
      vertex 17.5616 99.7145 2
    endloop
  endfacet
  facet normal 0 0 1
    outer loop
      vertex 39.4391 93.5522 2
      vertex 18.8593 98.6306 2
      vertex 33.5127 92.6734 2
    endloop
  endfacet
  facet normal 0 0 1
    outer loop
      vertex 13.0907 98.5943 2
      vertex 10.0309 97.5951 2
      vertex 12.5566 97.5951 2
    endloop
  endfacet
  facet normal 0 0 1
    outer loop
      vertex 10 108 2
      vertex 13.0907 98.5943 2
      vertex 14.3884 99.6782 2
    endloop
  endfacet
  facet normal 0 0 1
    outer loop
      vertex 17.5616 99.7145 2
      vertex 10 108 2
      vertex 16.0309 100.095 2
    endloop
  endfacet
  facet normal 0 0 1
    outer loop
      vertex 10 108 2
      vertex 14.5002 99.7145 2
      vertex 16.0309 100.095 2
    endloop
  endfacet
  facet normal 0 0 1
    outer loop
      vertex 10 108 2
      vertex 14.3884 99.6782 2
      vertex 14.5002 99.7145 2
    endloop
  endfacet
  facet normal 0 0 1
    outer loop
      vertex 13.0907 98.5943 2
      vertex 10 108 2
      vertex 10.0309 97.5951 2
    endloop
  endfacet
  facet normal 0 0 1
    outer loop
      vertex 10.0309 97.5951 2
      vertex 10 108 2
      vertex 10 97.5851 2
    endloop
  endfacet
  facet normal -0 0 1
    outer loop
      vertex 19.7955 93.0866 2
      vertex 22.3053 89.8208 2
      vertex 20.1 95 2
    endloop
  endfacet
  facet normal -0 0 1
    outer loop
      vertex 19.4819 92.5 2
      vertex 22.3053 89.8208 2
      vertex 19.7955 93.0866 2
    endloop
  endfacet
  facet normal -0 0 1
    outer loop
      vertex 18.9284 91.4645 2
      vertex 22.3053 89.8208 2
      vertex 19.4819 92.5 2
    endloop
  endfacet
  facet normal -0 0 1
    outer loop
      vertex 18.8593 91.3694 2
      vertex 22.3053 89.8208 2
      vertex 18.9284 91.4645 2
    endloop
  endfacet
  facet normal -0 0 1
    outer loop
      vertex 17.5616 90.2855 2
      vertex 22.3053 89.8208 2
      vertex 18.8593 91.3694 2
    endloop
  endfacet
  facet normal 0 0 1
    outer loop
      vertex 12.3302 86.6346 2
      vertex 17.5616 90.2855 2
      vertex 16.0309 89.9049 2
    endloop
  endfacet
  facet normal 0 0 1
    outer loop
      vertex 17.5616 90.2855 2
      vertex 12.3302 86.6346 2
      vertex 22.3053 89.8208 2
    endloop
  endfacet
  facet normal 0 0 1
    outer loop
      vertex 14.5002 90.2855 2
      vertex 12.3302 86.6346 2
      vertex 16.0309 89.9049 2
    endloop
  endfacet
  facet normal 0 0 1
    outer loop
      vertex 14.3884 90.3218 2
      vertex 12.3302 86.6346 2
      vertex 14.5002 90.2855 2
    endloop
  endfacet
  facet normal 0 0 1
    outer loop
      vertex 13.0907 91.4057 2
      vertex 12.3302 86.6346 2
      vertex 14.3884 90.3218 2
    endloop
  endfacet
  facet normal -0 0 1
    outer loop
      vertex 10.0309 92.4049 2
      vertex 13.0907 91.4057 2
      vertex 12.5566 92.4049 2
    endloop
  endfacet
  facet normal 0 0 1
    outer loop
      vertex 13.0907 91.4057 2
      vertex 10.0309 92.4049 2
      vertex 12.3302 86.6346 2
    endloop
  endfacet
  facet normal 0 0 1
    outer loop
      vertex 10 92.4149 2
      vertex 12.3302 86.6346 2
      vertex 10.0309 92.4049 2
    endloop
  endfacet
  facet normal 0 0 1
    outer loop
      vertex 12.3302 86.6346 2
      vertex 10 92.4149 2
      vertex 10 77.5237 2
    endloop
  endfacet
  facet normal 0 0 1
    outer loop
      vertex 143.286 109.842 15
      vertex 143.289 109.775 15
      vertex 143.29 109.809 15
    endloop
  endfacet
  facet normal 0 0 1
    outer loop
      vertex 143.286 109.842 15
      vertex 143.282 109.742 15
      vertex 143.289 109.775 15
    endloop
  endfacet
  facet normal 0 0 1
    outer loop
      vertex 143.276 109.875 15
      vertex 143.282 109.742 15
      vertex 143.286 109.842 15
    endloop
  endfacet
  facet normal 0 0 1
    outer loop
      vertex 143.276 109.875 15
      vertex 143.269 109.71 15
      vertex 143.282 109.742 15
    endloop
  endfacet
  facet normal 0 0 1
    outer loop
      vertex 143.261 109.905 15
      vertex 143.269 109.71 15
      vertex 143.276 109.875 15
    endloop
  endfacet
  facet normal 0 0 1
    outer loop
      vertex 143.261 109.905 15
      vertex 143.252 109.681 15
      vertex 143.269 109.71 15
    endloop
  endfacet
  facet normal 0 0 1
    outer loop
      vertex 143.241 109.932 15
      vertex 143.252 109.681 15
      vertex 143.261 109.905 15
    endloop
  endfacet
  facet normal 0 0 1
    outer loop
      vertex 143.241 109.932 15
      vertex 143.229 109.656 15
      vertex 143.252 109.681 15
    endloop
  endfacet
  facet normal 0 0 1
    outer loop
      vertex 143.216 109.956 15
      vertex 143.229 109.656 15
      vertex 143.241 109.932 15
    endloop
  endfacet
  facet normal 0 0 1
    outer loop
      vertex 143.216 109.956 15
      vertex 143.203 109.635 15
      vertex 143.229 109.656 15
    endloop
  endfacet
  facet normal 0 0 1
    outer loop
      vertex 143.188 109.975 15
      vertex 143.203 109.635 15
      vertex 143.216 109.956 15
    endloop
  endfacet
  facet normal 0 0 1
    outer loop
      vertex 143.157 109.989 15
      vertex 143.203 109.635 15
      vertex 143.188 109.975 15
    endloop
  endfacet
  facet normal 0 0 1
    outer loop
      vertex 143.124 109.997 15
      vertex 143.203 109.635 15
      vertex 143.157 109.989 15
    endloop
  endfacet
  facet normal 0 0 1
    outer loop
      vertex 143.091 110 15
      vertex 143.203 109.635 15
      vertex 143.124 109.997 15
    endloop
  endfacet
  facet normal 0 0 1
    outer loop
      vertex 143.091 110 15
      vertex 140.345 108.836 15
      vertex 143.203 109.635 15
    endloop
  endfacet
  facet normal -0 0 1
    outer loop
      vertex 134.474 104.356 15
      vertex 136.403 103.823 15
      vertex 136.963 106.094 15
    endloop
  endfacet
  facet normal 0 0 1
    outer loop
      vertex 137.218 106.707 15
      vertex 135.434 107.626 15
      vertex 136.963 106.094 15
    endloop
  endfacet
  facet normal -0 0 1
    outer loop
      vertex 135.434 107.626 15
      vertex 137.218 106.707 15
      vertex 135.667 108 15
    endloop
  endfacet
  facet normal 0 0 1
    outer loop
      vertex 137.47 107.112 15
      vertex 135.667 108 15
      vertex 137.218 106.707 15
    endloop
  endfacet
  facet normal 0 0 1
    outer loop
      vertex 137.764 107.444 15
      vertex 135.667 108 15
      vertex 137.47 107.112 15
    endloop
  endfacet
  facet normal 0 0 1
    outer loop
      vertex 138.174 107.786 15
      vertex 135.667 108 15
      vertex 137.764 107.444 15
    endloop
  endfacet
  facet normal 0 0 1
    outer loop
      vertex 138.86 108.204 15
      vertex 135.667 108 15
      vertex 138.174 107.786 15
    endloop
  endfacet
  facet normal 0 0 1
    outer loop
      vertex 140.345 108.836 15
      vertex 135.667 108 15
      vertex 138.86 108.204 15
    endloop
  endfacet
  facet normal 0 0 1
    outer loop
      vertex 143.091 110 15
      vertex 135.667 108 15
      vertex 140.345 108.836 15
    endloop
  endfacet
  facet normal -0 0 1
    outer loop
      vertex 10 110 15
      vertex 135.667 108 15
      vertex 143.091 110 15
    endloop
  endfacet
  facet normal 0 0 1
    outer loop
      vertex 135.667 108 15
      vertex 10 110 15
      vertex 10 108 15
    endloop
  endfacet
  facet normal 0 0 1
    outer loop
      vertex 136.963 106.094 15
      vertex 135.434 107.626 15
      vertex 135.058 106.721 15
    endloop
  endfacet
  facet normal 0 0 1
    outer loop
      vertex 134.474 104.356 15
      vertex 136.963 106.094 15
      vertex 135.058 106.721 15
    endloop
  endfacet
  facet normal 0 0 1
    outer loop
      vertex 133.989 102.768 15
      vertex 136.403 103.823 15
      vertex 134.474 104.356 15
    endloop
  endfacet
  facet normal 0 0 1
    outer loop
      vertex 136.403 103.823 15
      vertex 133.989 102.768 15
      vertex 135.856 102.034 15
    endloop
  endfacet
  facet normal 0 0 1
    outer loop
      vertex 135.856 102.034 15
      vertex 133.989 102.768 15
      vertex 135.382 101.058 15
    endloop
  endfacet
  facet normal -0 0 1
    outer loop
      vertex 133.659 102.088 15
      vertex 135.382 101.058 15
      vertex 133.989 102.768 15
    endloop
  endfacet
  facet normal 0 0 1
    outer loop
      vertex 135.382 101.058 15
      vertex 133.659 102.088 15
      vertex 134.694 100.104 15
    endloop
  endfacet
  facet normal -0 0 1
    outer loop
      vertex 133.17 101.411 15
      vertex 134.694 100.104 15
      vertex 133.659 102.088 15
    endloop
  endfacet
  facet normal 0 0 1
    outer loop
      vertex 134.694 100.104 15
      vertex 133.17 101.411 15
      vertex 133.627 99.0533 15
    endloop
  endfacet
  facet normal -0 0 1
    outer loop
      vertex 132.336 100.588 15
      vertex 133.627 99.0533 15
      vertex 133.17 101.411 15
    endloop
  endfacet
  facet normal 0 0 1
    outer loop
      vertex 132.336 100.588 15
      vertex 131.75 97.7106 15
      vertex 133.627 99.0533 15
    endloop
  endfacet
  facet normal -0 0 1
    outer loop
      vertex 130.72 99.4327 15
      vertex 131.75 97.7106 15
      vertex 132.336 100.588 15
    endloop
  endfacet
  facet normal 0 0 1
    outer loop
      vertex 130.72 99.4327 15
      vertex 126.916 95.3314 15
      vertex 131.75 97.7106 15
    endloop
  endfacet
  facet normal -0 0 1
    outer loop
      vertex 126.138 97.1774 15
      vertex 126.916 95.3314 15
      vertex 130.72 99.4327 15
    endloop
  endfacet
  facet normal -0 0 1
    outer loop
      vertex 123.609 96.2809 15
      vertex 126.916 95.3314 15
      vertex 126.138 97.1774 15
    endloop
  endfacet
  facet normal 0 0 1
    outer loop
      vertex 126.916 95.3314 15
      vertex 123.609 96.2809 15
      vertex 124.118 94.3393 15
    endloop
  endfacet
  facet normal 0 0 1
    outer loop
      vertex 123.609 96.2809 15
      vertex 122.151 93.9979 15
      vertex 124.118 94.3393 15
    endloop
  endfacet
  facet normal -0 0 1
    outer loop
      vertex 121.906 95.9853 15
      vertex 122.151 93.9979 15
      vertex 123.609 96.2809 15
    endloop
  endfacet
  facet normal 0 0 1
    outer loop
      vertex 121.906 95.9853 15
      vertex 114.925 93.4701 15
      vertex 122.151 93.9979 15
    endloop
  endfacet
  facet normal -0 0 1
    outer loop
      vertex 114.774 95.4644 15
      vertex 114.925 93.4701 15
      vertex 121.906 95.9853 15
    endloop
  endfacet
  facet normal 0 0 1
    outer loop
      vertex 114.774 95.4644 15
      vertex 104.731 92.6674 15
      vertex 114.925 93.4701 15
    endloop
  endfacet
  facet normal -0 0 1
    outer loop
      vertex 104.516 94.6566 15
      vertex 104.731 92.6674 15
      vertex 114.774 95.4644 15
    endloop
  endfacet
  facet normal 0 0 1
    outer loop
      vertex 104.516 94.6566 15
      vertex 98.2663 91.7778 15
      vertex 104.731 92.6674 15
    endloop
  endfacet
  facet normal -0 0 1
    outer loop
      vertex 97.8227 93.7356 15
      vertex 98.2663 91.7778 15
      vertex 104.516 94.6566 15
    endloop
  endfacet
  facet normal 0 0 1
    outer loop
      vertex 91.4162 91.6909 15
      vertex 98.2663 91.7778 15
      vertex 97.8227 93.7356 15
    endloop
  endfacet
  facet normal 0 0 1
    outer loop
      vertex 98.2663 91.7778 15
      vertex 91.4162 91.6909 15
      vertex 92.1035 89.8109 15
    endloop
  endfacet
  facet normal 0 0 1
    outer loop
      vertex 91.4162 91.6909 15
      vertex 88.7606 88.4286 15
      vertex 92.1035 89.8109 15
    endloop
  endfacet
  facet normal -0 0 1
    outer loop
      vertex 87.8598 90.2204 15
      vertex 88.7606 88.4286 15
      vertex 91.4162 91.6909 15
    endloop
  endfacet
  facet normal 0 0 1
    outer loop
      vertex 87.8598 90.2204 15
      vertex 87.6551 87.7666 15
      vertex 88.7606 88.4286 15
    endloop
  endfacet
  facet normal -0 0 1
    outer loop
      vertex 86.5046 89.4089 15
      vertex 87.6551 87.7666 15
      vertex 87.8598 90.2204 15
    endloop
  endfacet
  facet normal 0 0 1
    outer loop
      vertex 87.6551 87.7666 15
      vertex 86.5046 89.4089 15
      vertex 86.8165 87.0848 15
    endloop
  endfacet
  facet normal -0 0 1
    outer loop
      vertex 85.4232 88.5297 15
      vertex 86.8165 87.0848 15
      vertex 86.5046 89.4089 15
    endloop
  endfacet
  facet normal 0 0 1
    outer loop
      vertex 86.8165 87.0848 15
      vertex 85.4232 88.5297 15
      vertex 86.0362 86.1934 15
    endloop
  endfacet
  facet normal -0 0 1
    outer loop
      vertex 84.4219 87.3857 15
      vertex 86.0362 86.1934 15
      vertex 85.4232 88.5297 15
    endloop
  endfacet
  facet normal 0 0 1
    outer loop
      vertex 86.0362 86.1934 15
      vertex 84.4219 87.3857 15
      vertex 85.267 84.9479 15
    endloop
  endfacet
  facet normal -0 0 1
    outer loop
      vertex 83.4831 85.8657 15
      vertex 85.267 84.9479 15
      vertex 84.4219 87.3857 15
    endloop
  endfacet
  facet normal 0 0 1
    outer loop
      vertex 82.5045 83.5319 15
      vertex 85.267 84.9479 15
      vertex 83.4831 85.8657 15
    endloop
  endfacet
  facet normal 0 0 1
    outer loop
      vertex 85.267 84.9479 15
      vertex 82.5045 83.5319 15
      vertex 84.3914 82.8599 15
    endloop
  endfacet
  facet normal 0 0 1
    outer loop
      vertex 81.7781 81.0725 15
      vertex 84.3914 82.8599 15
      vertex 82.5045 83.5319 15
    endloop
  endfacet
  facet normal 0 0 1
    outer loop
      vertex 84.3914 82.8599 15
      vertex 81.7781 81.0725 15
      vertex 83.6964 80.5066 15
    endloop
  endfacet
  facet normal 0 0 1
    outer loop
      vertex 81.5051 80.146 15
      vertex 83.6964 80.5066 15
      vertex 81.7781 81.0725 15
    endloop
  endfacet
  facet normal 0 0 1
    outer loop
      vertex 83.6964 80.5066 15
      vertex 81.5051 80.146 15
      vertex 83.3887 79.4625 15
    endloop
  endfacet
  facet normal -0 0 1
    outer loop
      vertex 81.3822 79.863 15
      vertex 83.3887 79.4625 15
      vertex 81.5051 80.146 15
    endloop
  endfacet
  facet normal 0 0 1
    outer loop
      vertex 83.3887 79.4625 15
      vertex 81.3822 79.863 15
      vertex 83.1564 78.9275 15
    endloop
  endfacet
  facet normal 0 0 1
    outer loop
      vertex 83.1564 78.9275 15
      vertex 81.3822 79.863 15
      vertex 82.9532 78.6039 15
    endloop
  endfacet
  facet normal -0 0 1
    outer loop
      vertex 81.3444 79.8028 15
      vertex 82.9532 78.6039 15
      vertex 81.3822 79.863 15
    endloop
  endfacet
  facet normal 0 0 1
    outer loop
      vertex 82.9532 78.6039 15
      vertex 81.3444 79.8028 15
      vertex 82.7183 78.3361 15
    endloop
  endfacet
  facet normal -0 0 1
    outer loop
      vertex 81.3142 79.7683 15
      vertex 82.7183 78.3361 15
      vertex 81.3444 79.8028 15
    endloop
  endfacet
  facet normal 0 0 1
    outer loop
      vertex 82.7183 78.3361 15
      vertex 81.3142 79.7683 15
      vertex 82.4317 78.0946 15
    endloop
  endfacet
  facet normal -0 0 1
    outer loop
      vertex 81.2598 79.7225 15
      vertex 82.4317 78.0946 15
      vertex 81.3142 79.7683 15
    endloop
  endfacet
  facet normal 0 0 1
    outer loop
      vertex 82.4317 78.0946 15
      vertex 81.2598 79.7225 15
      vertex 81.9301 77.7887 15
    endloop
  endfacet
  facet normal -0 0 1
    outer loop
      vertex 81.0218 79.5773 15
      vertex 81.9301 77.7887 15
      vertex 81.2598 79.7225 15
    endloop
  endfacet
  facet normal 0 0 1
    outer loop
      vertex 81.0218 79.5773 15
      vertex 81.0016 77.4048 15
      vertex 81.9301 77.7887 15
    endloop
  endfacet
  facet normal -0 0 1
    outer loop
      vertex 80.3314 79.2919 15
      vertex 81.0016 77.4048 15
      vertex 81.0218 79.5773 15
    endloop
  endfacet
  facet normal 0 0 1
    outer loop
      vertex 80.3314 79.2919 15
      vertex 79.5199 76.9618 15
      vertex 81.0016 77.4048 15
    endloop
  endfacet
  facet normal -0 0 1
    outer loop
      vertex 79.0623 78.9124 15
      vertex 79.5199 76.9618 15
      vertex 80.3314 79.2919 15
    endloop
  endfacet
  facet normal -0 0 1
    outer loop
      vertex 76.0205 78.3894 15
      vertex 79.5199 76.9618 15
      vertex 79.0623 78.9124 15
    endloop
  endfacet
  facet normal 0 0 1
    outer loop
      vertex 79.5199 76.9618 15
      vertex 76.0205 78.3894 15
      vertex 76.1983 76.3906 15
    endloop
  endfacet
  facet normal -0 0 1
    outer loop
      vertex 72.0539 78.3613 15
      vertex 76.1983 76.3906 15
      vertex 76.0205 78.3894 15
    endloop
  endfacet
  facet normal 0 0 1
    outer loop
      vertex 72.0539 78.3613 15
      vertex 71.9081 76.3602 15
      vertex 76.1983 76.3906 15
    endloop
  endfacet
  facet normal 0 0 1
    outer loop
      vertex 65.4226 77.3573 15
      vertex 72.0539 78.3613 15
      vertex 65.8321 79.3178 15
    endloop
  endfacet
  facet normal 0 0 1
    outer loop
      vertex 72.0539 78.3613 15
      vertex 65.4226 77.3573 15
      vertex 71.9081 76.3602 15
    endloop
  endfacet
  facet normal 0 0 1
    outer loop
      vertex 58.4717 81.27 15
      vertex 65.4226 77.3573 15
      vertex 65.8321 79.3178 15
    endloop
  endfacet
  facet normal 0 0 1
    outer loop
      vertex 58.4717 81.27 15
      vertex 57.8688 79.3607 15
      vertex 65.4226 77.3573 15
    endloop
  endfacet
  facet normal 0 0 1
    outer loop
      vertex 55.1721 82.4837 15
      vertex 57.8688 79.3607 15
      vertex 58.4717 81.27 15
    endloop
  endfacet
  facet normal 0 0 1
    outer loop
      vertex 55.1721 82.4837 15
      vertex 54.3561 80.6528 15
      vertex 57.8688 79.3607 15
    endloop
  endfacet
  facet normal 0 0 1
    outer loop
      vertex 52.8011 83.7366 15
      vertex 54.3561 80.6528 15
      vertex 55.1721 82.4837 15
    endloop
  endfacet
  facet normal 0 0 1
    outer loop
      vertex 52.8011 83.7366 15
      vertex 51.734 82.0384 15
      vertex 54.3561 80.6528 15
    endloop
  endfacet
  facet normal 0 0 1
    outer loop
      vertex 51.1376 84.9645 15
      vertex 51.734 82.0384 15
      vertex 52.8011 83.7366 15
    endloop
  endfacet
  facet normal 0 0 1
    outer loop
      vertex 49.8297 83.4441 15
      vertex 51.1376 84.9645 15
      vertex 50.1843 85.9169 15
    endloop
  endfacet
  facet normal 0 0 1
    outer loop
      vertex 51.1376 84.9645 15
      vertex 49.8297 83.4441 15
      vertex 51.734 82.0384 15
    endloop
  endfacet
  facet normal 0 0 1
    outer loop
      vertex 48.665 84.6077 15
      vertex 50.1843 85.9169 15
      vertex 49.5837 86.7293 15
    endloop
  endfacet
  facet normal -0 0 1
    outer loop
      vertex 47.222 86.9711 15
      vertex 49.5837 86.7293 15
      vertex 49.0397 87.8083 15
    endloop
  endfacet
  facet normal 0 0 1
    outer loop
      vertex 50.1843 85.9169 15
      vertex 48.665 84.6077 15
      vertex 49.8297 83.4441 15
    endloop
  endfacet
  facet normal -0 0 1
    outer loop
      vertex 46.5975 88.4634 15
      vertex 49.0397 87.8083 15
      vertex 48.3962 89.346 15
    endloop
  endfacet
  facet normal 0 0 1
    outer loop
      vertex 49.5837 86.7293 15
      vertex 47.8744 85.6771 15
      vertex 48.665 84.6077 15
    endloop
  endfacet
  facet normal 0 0 1
    outer loop
      vertex 46.1511 89.2505 15
      vertex 48.3962 89.346 15
      vertex 47.8095 90.3803 15
    endloop
  endfacet
  facet normal 0 0 1
    outer loop
      vertex 49.5837 86.7293 15
      vertex 47.222 86.9711 15
      vertex 47.8744 85.6771 15
    endloop
  endfacet
  facet normal 0 0 1
    outer loop
      vertex 46.1511 89.2505 15
      vertex 47.8095 90.3803 15
      vertex 47.097 91.2612 15
    endloop
  endfacet
  facet normal 0 0 1
    outer loop
      vertex 49.0397 87.8083 15
      vertex 46.5975 88.4634 15
      vertex 47.222 86.9711 15
    endloop
  endfacet
  facet normal 0 0 1
    outer loop
      vertex 45.6409 89.8812 15
      vertex 47.097 91.2612 15
      vertex 46.2257 92.0469 15
    endloop
  endfacet
  facet normal 0 0 1
    outer loop
      vertex 48.3962 89.346 15
      vertex 46.1511 89.2505 15
      vertex 46.5975 88.4634 15
    endloop
  endfacet
  facet normal 0 0 1
    outer loop
      vertex 47.097 91.2612 15
      vertex 45.6409 89.8812 15
      vertex 46.1511 89.2505 15
    endloop
  endfacet
  facet normal 0 0 1
    outer loop
      vertex 45.0054 90.4542 15
      vertex 46.2257 92.0469 15
      vertex 45.1928 92.7144 15
    endloop
  endfacet
  facet normal 0 0 1
    outer loop
      vertex 46.2257 92.0469 15
      vertex 45.0054 90.4542 15
      vertex 45.6409 89.8812 15
    endloop
  endfacet
  facet normal 0 0 1
    outer loop
      vertex 45.1928 92.7144 15
      vertex 44.2498 90.9425 15
      vertex 45.0054 90.4542 15
    endloop
  endfacet
  facet normal 0 0 1
    outer loop
      vertex 44.0713 93.1945 15
      vertex 44.2498 90.9425 15
      vertex 45.1928 92.7144 15
    endloop
  endfacet
  facet normal 0 0 1
    outer loop
      vertex 44.0713 93.1945 15
      vertex 43.4318 91.2927 15
      vertex 44.2498 90.9425 15
    endloop
  endfacet
  facet normal 0 0 1
    outer loop
      vertex 42.9409 93.4762 15
      vertex 43.4318 91.2927 15
      vertex 44.0713 93.1945 15
    endloop
  endfacet
  facet normal 0 0 1
    outer loop
      vertex 42.9409 93.4762 15
      vertex 42.6065 91.4984 15
      vertex 43.4318 91.2927 15
    endloop
  endfacet
  facet normal 0 0 1
    outer loop
      vertex 41.346 93.6213 15
      vertex 42.6065 91.4984 15
      vertex 42.9409 93.4762 15
    endloop
  endfacet
  facet normal 0 0 1
    outer loop
      vertex 41.346 93.6213 15
      vertex 41.2914 91.618 15
      vertex 42.6065 91.4984 15
    endloop
  endfacet
  facet normal 0 0 1
    outer loop
      vertex 41.346 93.6213 15
      vertex 39.6226 91.5576 15
      vertex 41.2914 91.618 15
    endloop
  endfacet
  facet normal -0 0 1
    outer loop
      vertex 39.4391 93.5522 15
      vertex 39.6226 91.5576 15
      vertex 41.346 93.6213 15
    endloop
  endfacet
  facet normal 0 0 1
    outer loop
      vertex 39.4391 93.5522 15
      vertex 33.907 90.71 15
      vertex 39.6226 91.5576 15
    endloop
  endfacet
  facet normal -0 0 1
    outer loop
      vertex 33.5127 92.6734 15
      vertex 33.907 90.71 15
      vertex 39.4391 93.5522 15
    endloop
  endfacet
  facet normal 0 0 1
    outer loop
      vertex 22.3053 89.8208 15
      vertex 33.907 90.71 15
      vertex 33.5127 92.6734 15
    endloop
  endfacet
  facet normal 0 0 1
    outer loop
      vertex 33.907 90.71 15
      vertex 22.3053 89.8208 15
      vertex 22.8567 87.8974 15
    endloop
  endfacet
  facet normal 0 0 1
    outer loop
      vertex 22.3053 89.8208 15
      vertex 13.9934 85.0663 15
      vertex 22.8567 87.8974 15
    endloop
  endfacet
  facet normal -0 0 1
    outer loop
      vertex 12.3302 86.6346 15
      vertex 13.9934 85.0663 15
      vertex 22.3053 89.8208 15
    endloop
  endfacet
  facet normal 0 0 1
    outer loop
      vertex 10 77.5237 15
      vertex 13.9934 85.0663 15
      vertex 12.3302 86.6346 15
    endloop
  endfacet
  facet normal 0 0 1
    outer loop
      vertex 13.9934 85.0663 15
      vertex 10 77.5237 15
      vertex 11.0718 73.6428 15
    endloop
  endfacet
  facet normal 0 0 1
    outer loop
      vertex 11.0718 73.6428 15
      vertex 10 77.5237 15
      vertex 10 70.3181 15
    endloop
  endfacet
  facet normal 0.628337 -0.777941 0
    outer loop
      vertex 143.203 109.635 0
      vertex 143.229 109.656 15
      vertex 143.203 109.635 15
    endloop
  endfacet
  facet normal 0.628337 -0.777941 0
    outer loop
      vertex 143.229 109.656 15
      vertex 143.203 109.635 0
      vertex 143.229 109.656 0
    endloop
  endfacet
  facet normal 0.735931 -0.677057 0
    outer loop
      vertex 143.229 109.656 15
      vertex 143.252 109.681 0
      vertex 143.252 109.681 15
    endloop
  endfacet
  facet normal 0.735931 -0.677057 0
    outer loop
      vertex 143.252 109.681 0
      vertex 143.229 109.656 15
      vertex 143.229 109.656 0
    endloop
  endfacet
  facet normal 0.862698 -0.505719 0
    outer loop
      vertex 143.252 109.681 15
      vertex 143.269 109.71 0
      vertex 143.269 109.71 15
    endloop
  endfacet
  facet normal 0.862698 -0.505719 0
    outer loop
      vertex 143.269 109.71 0
      vertex 143.252 109.681 15
      vertex 143.252 109.681 0
    endloop
  endfacet
  facet normal 0.926467 -0.376377 0
    outer loop
      vertex 143.269 109.71 15
      vertex 143.282 109.742 0
      vertex 143.282 109.742 15
    endloop
  endfacet
  facet normal 0.926467 -0.376377 0
    outer loop
      vertex 143.282 109.742 0
      vertex 143.269 109.71 15
      vertex 143.269 109.71 0
    endloop
  endfacet
  facet normal 0.978234 -0.207504 0
    outer loop
      vertex 143.282 109.742 15
      vertex 143.289 109.775 0
      vertex 143.289 109.775 15
    endloop
  endfacet
  facet normal 0.978234 -0.207504 0
    outer loop
      vertex 143.289 109.775 0
      vertex 143.282 109.742 15
      vertex 143.282 109.742 0
    endloop
  endfacet
  facet normal 0.999568 -0.0293991 0
    outer loop
      vertex 143.289 109.775 15
      vertex 143.29 109.809 0
      vertex 143.29 109.809 15
    endloop
  endfacet
  facet normal 0.999568 -0.0293991 0
    outer loop
      vertex 143.29 109.809 0
      vertex 143.289 109.775 15
      vertex 143.289 109.775 0
    endloop
  endfacet
  facet normal 0.992734 0.120331 0
    outer loop
      vertex 143.29 109.809 15
      vertex 143.286 109.842 0
      vertex 143.286 109.842 15
    endloop
  endfacet
  facet normal 0.992734 0.120331 0
    outer loop
      vertex 143.286 109.842 0
      vertex 143.29 109.809 15
      vertex 143.29 109.809 0
    endloop
  endfacet
  facet normal 0.957024 0.290007 0
    outer loop
      vertex 143.286 109.842 15
      vertex 143.276 109.875 0
      vertex 143.276 109.875 15
    endloop
  endfacet
  facet normal 0.957024 0.290007 0
    outer loop
      vertex 143.276 109.875 0
      vertex 143.286 109.842 15
      vertex 143.286 109.842 0
    endloop
  endfacet
  facet normal 0.894427 0.447214 0
    outer loop
      vertex 143.276 109.875 15
      vertex 143.261 109.905 0
      vertex 143.261 109.905 15
    endloop
  endfacet
  facet normal 0.894427 0.447214 0
    outer loop
      vertex 143.261 109.905 0
      vertex 143.276 109.875 15
      vertex 143.276 109.875 0
    endloop
  endfacet
  facet normal 0.803557 0.595228 0
    outer loop
      vertex 143.261 109.905 15
      vertex 143.241 109.932 0
      vertex 143.241 109.932 15
    endloop
  endfacet
  facet normal 0.803557 0.595228 0
    outer loop
      vertex 143.241 109.932 0
      vertex 143.261 109.905 15
      vertex 143.261 109.905 0
    endloop
  endfacet
  facet normal 0.692532 0.721387 -0
    outer loop
      vertex 143.241 109.932 0
      vertex 143.216 109.956 15
      vertex 143.241 109.932 15
    endloop
  endfacet
  facet normal 0.692532 0.721387 0
    outer loop
      vertex 143.216 109.956 15
      vertex 143.241 109.932 0
      vertex 143.216 109.956 0
    endloop
  endfacet
  facet normal 0.561501 0.827476 -0
    outer loop
      vertex 143.216 109.956 0
      vertex 143.188 109.975 15
      vertex 143.216 109.956 15
    endloop
  endfacet
  facet normal 0.561501 0.827476 0
    outer loop
      vertex 143.188 109.975 15
      vertex 143.216 109.956 0
      vertex 143.188 109.975 0
    endloop
  endfacet
  facet normal 0.411587 0.911371 -0
    outer loop
      vertex 143.188 109.975 0
      vertex 143.157 109.989 15
      vertex 143.188 109.975 15
    endloop
  endfacet
  facet normal 0.411587 0.911371 0
    outer loop
      vertex 143.157 109.989 15
      vertex 143.188 109.975 0
      vertex 143.157 109.989 0
    endloop
  endfacet
  facet normal 0.2356 0.97185 -0
    outer loop
      vertex 143.157 109.989 0
      vertex 143.124 109.997 15
      vertex 143.157 109.989 15
    endloop
  endfacet
  facet normal 0.2356 0.97185 0
    outer loop
      vertex 143.124 109.997 15
      vertex 143.157 109.989 0
      vertex 143.124 109.997 0
    endloop
  endfacet
  facet normal 0.0905357 0.995893 -0
    outer loop
      vertex 143.124 109.997 0
      vertex 143.091 110 15
      vertex 143.124 109.997 15
    endloop
  endfacet
  facet normal 0.0905357 0.995893 0
    outer loop
      vertex 143.091 110 15
      vertex 143.124 109.997 0
      vertex 143.091 110 0
    endloop
  endfacet
  facet normal 0 1 -0
    outer loop
      vertex 143.091 110 0
      vertex 10 110 15
      vertex 143.091 110 15
    endloop
  endfacet
  facet normal 0 1 0
    outer loop
      vertex 10 110 15
      vertex 143.091 110 0
      vertex 10 110 0
    endloop
  endfacet
  facet normal 0.269242 -0.963072 0
    outer loop
      vertex 140.345 108.836 0
      vertex 143.203 109.635 15
      vertex 140.345 108.836 15
    endloop
  endfacet
  facet normal 0.269242 -0.963072 0
    outer loop
      vertex 143.203 109.635 15
      vertex 140.345 108.836 0
      vertex 143.203 109.635 0
    endloop
  endfacet
  facet normal 0.3916 -0.920136 0
    outer loop
      vertex 138.86 108.204 0
      vertex 140.345 108.836 15
      vertex 138.86 108.204 15
    endloop
  endfacet
  facet normal 0.3916 -0.920136 0
    outer loop
      vertex 140.345 108.836 15
      vertex 138.86 108.204 0
      vertex 140.345 108.836 0
    endloop
  endfacet
  facet normal 0.520342 -0.853958 0
    outer loop
      vertex 138.174 107.786 0
      vertex 138.86 108.204 15
      vertex 138.174 107.786 15
    endloop
  endfacet
  facet normal 0.520342 -0.853958 0
    outer loop
      vertex 138.86 108.204 15
      vertex 138.174 107.786 0
      vertex 138.86 108.204 0
    endloop
  endfacet
  facet normal 0.640553 -0.767914 0
    outer loop
      vertex 137.764 107.444 0
      vertex 138.174 107.786 15
      vertex 137.764 107.444 15
    endloop
  endfacet
  facet normal 0.640553 -0.767914 0
    outer loop
      vertex 138.174 107.786 15
      vertex 137.764 107.444 0
      vertex 138.174 107.786 0
    endloop
  endfacet
  facet normal 0.748652 -0.662963 0
    outer loop
      vertex 137.47 107.112 15
      vertex 137.764 107.444 0
      vertex 137.764 107.444 15
    endloop
  endfacet
  facet normal 0.748652 -0.662963 0
    outer loop
      vertex 137.764 107.444 0
      vertex 137.47 107.112 15
      vertex 137.47 107.112 0
    endloop
  endfacet
  facet normal 0.849057 -0.528302 0
    outer loop
      vertex 137.218 106.707 15
      vertex 137.47 107.112 0
      vertex 137.47 107.112 15
    endloop
  endfacet
  facet normal 0.849057 -0.528302 0
    outer loop
      vertex 137.47 107.112 0
      vertex 137.218 106.707 15
      vertex 137.218 106.707 0
    endloop
  endfacet
  facet normal 0.9233 -0.384081 0
    outer loop
      vertex 136.963 106.094 15
      vertex 137.218 106.707 0
      vertex 137.218 106.707 15
    endloop
  endfacet
  facet normal 0.9233 -0.384081 0
    outer loop
      vertex 137.218 106.707 0
      vertex 136.963 106.094 15
      vertex 136.963 106.094 0
    endloop
  endfacet
  facet normal 0.970917 -0.239416 0
    outer loop
      vertex 136.403 103.823 15
      vertex 136.963 106.094 0
      vertex 136.963 106.094 15
    endloop
  endfacet
  facet normal 0.970917 -0.239416 0
    outer loop
      vertex 136.963 106.094 0
      vertex 136.403 103.823 15
      vertex 136.403 103.823 0
    endloop
  endfacet
  facet normal 0.956298 -0.292395 0
    outer loop
      vertex 135.856 102.034 15
      vertex 136.403 103.823 0
      vertex 136.403 103.823 15
    endloop
  endfacet
  facet normal 0.956298 -0.292395 0
    outer loop
      vertex 136.403 103.823 0
      vertex 135.856 102.034 15
      vertex 135.856 102.034 0
    endloop
  endfacet
  facet normal 0.899529 -0.436861 0
    outer loop
      vertex 135.382 101.058 15
      vertex 135.856 102.034 0
      vertex 135.856 102.034 15
    endloop
  endfacet
  facet normal 0.899529 -0.436861 0
    outer loop
      vertex 135.856 102.034 0
      vertex 135.382 101.058 15
      vertex 135.382 101.058 0
    endloop
  endfacet
  facet normal 0.811083 -0.584932 0
    outer loop
      vertex 134.694 100.104 15
      vertex 135.382 101.058 0
      vertex 135.382 101.058 15
    endloop
  endfacet
  facet normal 0.811083 -0.584932 0
    outer loop
      vertex 135.382 101.058 0
      vertex 134.694 100.104 15
      vertex 134.694 100.104 0
    endloop
  endfacet
  facet normal 0.701643 -0.712528 0
    outer loop
      vertex 133.627 99.0533 0
      vertex 134.694 100.104 15
      vertex 133.627 99.0533 15
    endloop
  endfacet
  facet normal 0.701643 -0.712528 0
    outer loop
      vertex 134.694 100.104 15
      vertex 133.627 99.0533 0
      vertex 134.694 100.104 0
    endloop
  endfacet
  facet normal 0.581808 -0.813326 0
    outer loop
      vertex 131.75 97.7106 0
      vertex 133.627 99.0533 15
      vertex 131.75 97.7106 15
    endloop
  endfacet
  facet normal 0.581808 -0.813326 0
    outer loop
      vertex 133.627 99.0533 15
      vertex 131.75 97.7106 0
      vertex 133.627 99.0533 0
    endloop
  endfacet
  facet normal 0.441592 -0.897216 0
    outer loop
      vertex 126.916 95.3314 0
      vertex 131.75 97.7106 15
      vertex 126.916 95.3314 15
    endloop
  endfacet
  facet normal 0.441592 -0.897216 0
    outer loop
      vertex 131.75 97.7106 15
      vertex 126.916 95.3314 0
      vertex 131.75 97.7106 0
    endloop
  endfacet
  facet normal 0.334189 -0.942506 0
    outer loop
      vertex 124.118 94.3393 0
      vertex 126.916 95.3314 15
      vertex 124.118 94.3393 15
    endloop
  endfacet
  facet normal 0.334189 -0.942506 0
    outer loop
      vertex 126.916 95.3314 15
      vertex 124.118 94.3393 0
      vertex 126.916 95.3314 0
    endloop
  endfacet
  facet normal 0.171007 -0.98527 0
    outer loop
      vertex 122.151 93.9979 0
      vertex 124.118 94.3393 15
      vertex 122.151 93.9979 15
    endloop
  endfacet
  facet normal 0.171007 -0.98527 0
    outer loop
      vertex 124.118 94.3393 15
      vertex 122.151 93.9979 0
      vertex 124.118 94.3393 0
    endloop
  endfacet
  facet normal 0.0728477 -0.997343 0
    outer loop
      vertex 114.925 93.4701 0
      vertex 122.151 93.9979 15
      vertex 114.925 93.4701 15
    endloop
  endfacet
  facet normal 0.0728477 -0.997343 0
    outer loop
      vertex 122.151 93.9979 15
      vertex 114.925 93.4701 0
      vertex 122.151 93.9979 0
    endloop
  endfacet
  facet normal 0.0784994 -0.996914 0
    outer loop
      vertex 104.731 92.6674 0
      vertex 114.925 93.4701 15
      vertex 104.731 92.6674 15
    endloop
  endfacet
  facet normal 0.0784994 -0.996914 0
    outer loop
      vertex 114.925 93.4701 15
      vertex 104.731 92.6674 0
      vertex 114.925 93.4701 0
    endloop
  endfacet
  facet normal 0.136324 -0.990664 0
    outer loop
      vertex 98.2663 91.7778 0
      vertex 104.731 92.6674 15
      vertex 98.2663 91.7778 15
    endloop
  endfacet
  facet normal 0.136324 -0.990664 0
    outer loop
      vertex 104.731 92.6674 15
      vertex 98.2663 91.7778 0
      vertex 104.731 92.6674 0
    endloop
  endfacet
  facet normal 0.304047 -0.952657 0
    outer loop
      vertex 92.1035 89.8109 0
      vertex 98.2663 91.7778 15
      vertex 92.1035 89.8109 15
    endloop
  endfacet
  facet normal 0.304047 -0.952657 0
    outer loop
      vertex 98.2663 91.7778 15
      vertex 92.1035 89.8109 0
      vertex 98.2663 91.7778 0
    endloop
  endfacet
  facet normal 0.382123 -0.924111 0
    outer loop
      vertex 88.7606 88.4286 0
      vertex 92.1035 89.8109 15
      vertex 88.7606 88.4286 15
    endloop
  endfacet
  facet normal 0.382123 -0.924111 0
    outer loop
      vertex 92.1035 89.8109 15
      vertex 88.7606 88.4286 0
      vertex 92.1035 89.8109 0
    endloop
  endfacet
  facet normal 0.513754 -0.857938 0
    outer loop
      vertex 87.6551 87.7666 0
      vertex 88.7606 88.4286 15
      vertex 87.6551 87.7666 15
    endloop
  endfacet
  facet normal 0.513754 -0.857938 0
    outer loop
      vertex 88.7606 88.4286 15
      vertex 87.6551 87.7666 0
      vertex 88.7606 88.4286 0
    endloop
  endfacet
  facet normal 0.630836 -0.775916 0
    outer loop
      vertex 86.8165 87.0848 0
      vertex 87.6551 87.7666 15
      vertex 86.8165 87.0848 15
    endloop
  endfacet
  facet normal 0.630836 -0.775916 0
    outer loop
      vertex 87.6551 87.7666 15
      vertex 86.8165 87.0848 0
      vertex 87.6551 87.7666 0
    endloop
  endfacet
  facet normal 0.752441 -0.65866 0
    outer loop
      vertex 86.0362 86.1934 15
      vertex 86.8165 87.0848 0
      vertex 86.8165 87.0848 15
    endloop
  endfacet
  facet normal 0.752441 -0.65866 0
    outer loop
      vertex 86.8165 87.0848 0
      vertex 86.0362 86.1934 15
      vertex 86.0362 86.1934 0
    endloop
  endfacet
  facet normal 0.850822 -0.525454 0
    outer loop
      vertex 85.267 84.9479 15
      vertex 86.0362 86.1934 0
      vertex 86.0362 86.1934 15
    endloop
  endfacet
  facet normal 0.850822 -0.525454 0
    outer loop
      vertex 86.0362 86.1934 0
      vertex 85.267 84.9479 15
      vertex 85.267 84.9479 0
    endloop
  endfacet
  facet normal 0.922196 -0.386722 0
    outer loop
      vertex 84.3914 82.8599 15
      vertex 85.267 84.9479 0
      vertex 85.267 84.9479 15
    endloop
  endfacet
  facet normal 0.922196 -0.386722 0
    outer loop
      vertex 85.267 84.9479 0
      vertex 84.3914 82.8599 15
      vertex 84.3914 82.8599 0
    endloop
  endfacet
  facet normal 0.95905 -0.283236 0
    outer loop
      vertex 83.6964 80.5066 15
      vertex 84.3914 82.8599 0
      vertex 84.3914 82.8599 15
    endloop
  endfacet
  facet normal 0.95905 -0.283236 0
    outer loop
      vertex 84.3914 82.8599 0
      vertex 83.6964 80.5066 15
      vertex 83.6964 80.5066 0
    endloop
  endfacet
  facet normal 0.959213 -0.282684 0
    outer loop
      vertex 83.3887 79.4625 15
      vertex 83.6964 80.5066 0
      vertex 83.6964 80.5066 15
    endloop
  endfacet
  facet normal 0.959213 -0.282684 0
    outer loop
      vertex 83.6964 80.5066 0
      vertex 83.3887 79.4625 15
      vertex 83.3887 79.4625 0
    endloop
  endfacet
  facet normal 0.917263 -0.398281 0
    outer loop
      vertex 83.1564 78.9275 15
      vertex 83.3887 79.4625 0
      vertex 83.3887 79.4625 15
    endloop
  endfacet
  facet normal 0.917263 -0.398281 0
    outer loop
      vertex 83.3887 79.4625 0
      vertex 83.1564 78.9275 15
      vertex 83.1564 78.9275 0
    endloop
  endfacet
  facet normal 0.846879 -0.531786 0
    outer loop
      vertex 82.9532 78.6039 15
      vertex 83.1564 78.9275 0
      vertex 83.1564 78.9275 15
    endloop
  endfacet
  facet normal 0.846879 -0.531786 0
    outer loop
      vertex 83.1564 78.9275 0
      vertex 82.9532 78.6039 15
      vertex 82.9532 78.6039 0
    endloop
  endfacet
  facet normal 0.751776 -0.659418 0
    outer loop
      vertex 82.7183 78.3361 15
      vertex 82.9532 78.6039 0
      vertex 82.9532 78.6039 15
    endloop
  endfacet
  facet normal 0.751776 -0.659418 0
    outer loop
      vertex 82.9532 78.6039 0
      vertex 82.7183 78.3361 15
      vertex 82.7183 78.3361 0
    endloop
  endfacet
  facet normal 0.644374 -0.764711 0
    outer loop
      vertex 82.4317 78.0946 0
      vertex 82.7183 78.3361 15
      vertex 82.4317 78.0946 15
    endloop
  endfacet
  facet normal 0.644374 -0.764711 0
    outer loop
      vertex 82.7183 78.3361 15
      vertex 82.4317 78.0946 0
      vertex 82.7183 78.3361 0
    endloop
  endfacet
  facet normal 0.520665 -0.853761 0
    outer loop
      vertex 81.9301 77.7887 0
      vertex 82.4317 78.0946 15
      vertex 81.9301 77.7887 15
    endloop
  endfacet
  facet normal 0.520665 -0.853761 0
    outer loop
      vertex 82.4317 78.0946 15
      vertex 81.9301 77.7887 0
      vertex 82.4317 78.0946 0
    endloop
  endfacet
  facet normal 0.382091 -0.924125 0
    outer loop
      vertex 81.0016 77.4048 0
      vertex 81.9301 77.7887 15
      vertex 81.0016 77.4048 15
    endloop
  endfacet
  facet normal 0.382091 -0.924125 0
    outer loop
      vertex 81.9301 77.7887 15
      vertex 81.0016 77.4048 0
      vertex 81.9301 77.7887 0
    endloop
  endfacet
  facet normal 0.286452 -0.958095 0
    outer loop
      vertex 79.5199 76.9618 0
      vertex 81.0016 77.4048 15
      vertex 79.5199 76.9618 15
    endloop
  endfacet
  facet normal 0.286452 -0.958095 0
    outer loop
      vertex 81.0016 77.4048 15
      vertex 79.5199 76.9618 0
      vertex 81.0016 77.4048 0
    endloop
  endfacet
  facet normal 0.169478 -0.985534 0
    outer loop
      vertex 76.1983 76.3906 0
      vertex 79.5199 76.9618 15
      vertex 76.1983 76.3906 15
    endloop
  endfacet
  facet normal 0.169478 -0.985534 0
    outer loop
      vertex 79.5199 76.9618 15
      vertex 76.1983 76.3906 0
      vertex 79.5199 76.9618 0
    endloop
  endfacet
  facet normal 0.00708574 -0.999975 0
    outer loop
      vertex 71.9081 76.3602 0
      vertex 76.1983 76.3906 15
      vertex 71.9081 76.3602 15
    endloop
  endfacet
  facet normal 0.00708574 -0.999975 0
    outer loop
      vertex 76.1983 76.3906 15
      vertex 71.9081 76.3602 0
      vertex 76.1983 76.3906 0
    endloop
  endfacet
  facet normal -0.151958 -0.988387 0
    outer loop
      vertex 65.4226 77.3573 0
      vertex 71.9081 76.3602 15
      vertex 65.4226 77.3573 15
    endloop
  endfacet
  facet normal -0.151958 -0.988387 -0
    outer loop
      vertex 71.9081 76.3602 15
      vertex 65.4226 77.3573 0
      vertex 71.9081 76.3602 0
    endloop
  endfacet
  facet normal -0.256355 -0.966583 0
    outer loop
      vertex 57.8688 79.3607 0
      vertex 65.4226 77.3573 15
      vertex 57.8688 79.3607 15
    endloop
  endfacet
  facet normal -0.256355 -0.966583 -0
    outer loop
      vertex 65.4226 77.3573 15
      vertex 57.8688 79.3607 0
      vertex 65.4226 77.3573 0
    endloop
  endfacet
  facet normal -0.345222 -0.938521 0
    outer loop
      vertex 54.3561 80.6528 0
      vertex 57.8688 79.3607 15
      vertex 54.3561 80.6528 15
    endloop
  endfacet
  facet normal -0.345222 -0.938521 -0
    outer loop
      vertex 57.8688 79.3607 15
      vertex 54.3561 80.6528 0
      vertex 57.8688 79.3607 0
    endloop
  endfacet
  facet normal -0.467211 -0.884146 0
    outer loop
      vertex 51.734 82.0384 0
      vertex 54.3561 80.6528 15
      vertex 51.734 82.0384 15
    endloop
  endfacet
  facet normal -0.467211 -0.884146 -0
    outer loop
      vertex 54.3561 80.6528 15
      vertex 51.734 82.0384 0
      vertex 54.3561 80.6528 0
    endloop
  endfacet
  facet normal -0.593892 -0.804545 0
    outer loop
      vertex 49.8297 83.4441 0
      vertex 51.734 82.0384 15
      vertex 49.8297 83.4441 15
    endloop
  endfacet
  facet normal -0.593892 -0.804545 -0
    outer loop
      vertex 51.734 82.0384 15
      vertex 49.8297 83.4441 0
      vertex 51.734 82.0384 0
    endloop
  endfacet
  facet normal -0.706773 -0.707441 0
    outer loop
      vertex 48.665 84.6077 0
      vertex 49.8297 83.4441 15
      vertex 48.665 84.6077 15
    endloop
  endfacet
  facet normal -0.706773 -0.707441 -0
    outer loop
      vertex 49.8297 83.4441 15
      vertex 48.665 84.6077 0
      vertex 49.8297 83.4441 0
    endloop
  endfacet
  facet normal -0.804114 -0.594476 0
    outer loop
      vertex 48.665 84.6077 0
      vertex 47.8744 85.6771 15
      vertex 47.8744 85.6771 0
    endloop
  endfacet
  facet normal -0.804114 -0.594476 0
    outer loop
      vertex 47.8744 85.6771 15
      vertex 48.665 84.6077 0
      vertex 48.665 84.6077 15
    endloop
  endfacet
  facet normal -0.892932 -0.450192 0
    outer loop
      vertex 47.8744 85.6771 0
      vertex 47.222 86.9711 15
      vertex 47.222 86.9711 0
    endloop
  endfacet
  facet normal -0.892932 -0.450192 0
    outer loop
      vertex 47.222 86.9711 15
      vertex 47.8744 85.6771 0
      vertex 47.8744 85.6771 15
    endloop
  endfacet
  facet normal -0.922481 -0.386041 0
    outer loop
      vertex 47.222 86.9711 0
      vertex 46.5975 88.4634 15
      vertex 46.5975 88.4634 0
    endloop
  endfacet
  facet normal -0.922481 -0.386041 0
    outer loop
      vertex 46.5975 88.4634 15
      vertex 47.222 86.9711 0
      vertex 47.222 86.9711 15
    endloop
  endfacet
  facet normal -0.869844 -0.493328 0
    outer loop
      vertex 46.5975 88.4634 0
      vertex 46.1511 89.2505 15
      vertex 46.1511 89.2505 0
    endloop
  endfacet
  facet normal -0.869844 -0.493328 0
    outer loop
      vertex 46.1511 89.2505 15
      vertex 46.5975 88.4634 0
      vertex 46.5975 88.4634 15
    endloop
  endfacet
  facet normal -0.777466 -0.628925 0
    outer loop
      vertex 46.1511 89.2505 0
      vertex 45.6409 89.8812 15
      vertex 45.6409 89.8812 0
    endloop
  endfacet
  facet normal -0.777466 -0.628925 0
    outer loop
      vertex 45.6409 89.8812 15
      vertex 46.1511 89.2505 0
      vertex 46.1511 89.2505 15
    endloop
  endfacet
  facet normal -0.669642 -0.742684 0
    outer loop
      vertex 45.0054 90.4542 0
      vertex 45.6409 89.8812 15
      vertex 45.0054 90.4542 15
    endloop
  endfacet
  facet normal -0.669642 -0.742684 -0
    outer loop
      vertex 45.6409 89.8812 15
      vertex 45.0054 90.4542 0
      vertex 45.6409 89.8812 0
    endloop
  endfacet
  facet normal -0.542767 -0.839883 0
    outer loop
      vertex 44.2498 90.9425 0
      vertex 45.0054 90.4542 15
      vertex 44.2498 90.9425 15
    endloop
  endfacet
  facet normal -0.542767 -0.839883 -0
    outer loop
      vertex 45.0054 90.4542 15
      vertex 44.2498 90.9425 0
      vertex 45.0054 90.4542 0
    endloop
  endfacet
  facet normal -0.393567 -0.919296 0
    outer loop
      vertex 43.4318 91.2927 0
      vertex 44.2498 90.9425 15
      vertex 43.4318 91.2927 15
    endloop
  endfacet
  facet normal -0.393567 -0.919296 -0
    outer loop
      vertex 44.2498 90.9425 15
      vertex 43.4318 91.2927 0
      vertex 44.2498 90.9425 0
    endloop
  endfacet
  facet normal -0.241844 -0.970315 0
    outer loop
      vertex 42.6065 91.4984 0
      vertex 43.4318 91.2927 15
      vertex 42.6065 91.4984 15
    endloop
  endfacet
  facet normal -0.241844 -0.970315 -0
    outer loop
      vertex 43.4318 91.2927 15
      vertex 42.6065 91.4984 0
      vertex 43.4318 91.2927 0
    endloop
  endfacet
  facet normal -0.0905699 -0.99589 0
    outer loop
      vertex 41.2914 91.618 0
      vertex 42.6065 91.4984 15
      vertex 41.2914 91.618 15
    endloop
  endfacet
  facet normal -0.0905699 -0.99589 -0
    outer loop
      vertex 42.6065 91.4984 15
      vertex 41.2914 91.618 0
      vertex 42.6065 91.4984 0
    endloop
  endfacet
  facet normal 0.03617 -0.999346 0
    outer loop
      vertex 39.6226 91.5576 0
      vertex 41.2914 91.618 15
      vertex 39.6226 91.5576 15
    endloop
  endfacet
  facet normal 0.03617 -0.999346 0
    outer loop
      vertex 41.2914 91.618 15
      vertex 39.6226 91.5576 0
      vertex 41.2914 91.618 0
    endloop
  endfacet
  facet normal 0.146692 -0.989182 0
    outer loop
      vertex 33.907 90.71 0
      vertex 39.6226 91.5576 15
      vertex 33.907 90.71 15
    endloop
  endfacet
  facet normal 0.146692 -0.989182 0
    outer loop
      vertex 39.6226 91.5576 15
      vertex 33.907 90.71 0
      vertex 39.6226 91.5576 0
    endloop
  endfacet
  facet normal 0.246663 -0.969101 0
    outer loop
      vertex 22.8567 87.8974 0
      vertex 33.907 90.71 15
      vertex 22.8567 87.8974 15
    endloop
  endfacet
  facet normal 0.246663 -0.969101 0
    outer loop
      vertex 33.907 90.71 15
      vertex 22.8567 87.8974 0
      vertex 33.907 90.71 0
    endloop
  endfacet
  facet normal 0.304273 -0.952585 0
    outer loop
      vertex 13.9934 85.0663 0
      vertex 22.8567 87.8974 15
      vertex 13.9934 85.0663 15
    endloop
  endfacet
  facet normal 0.304273 -0.952585 0
    outer loop
      vertex 22.8567 87.8974 15
      vertex 13.9934 85.0663 0
      vertex 22.8567 87.8974 0
    endloop
  endfacet
  facet normal 0.968817 -0.247778 0
    outer loop
      vertex 11.0718 73.6428 15
      vertex 13.9934 85.0663 0
      vertex 13.9934 85.0663 15
    endloop
  endfacet
  facet normal 0.968817 -0.247778 0
    outer loop
      vertex 13.9934 85.0663 0
      vertex 11.0718 73.6428 15
      vertex 11.0718 73.6428 0
    endloop
  endfacet
  facet normal 0.951766 -0.306825 0
    outer loop
      vertex 10 70.3181 15
      vertex 11.0718 73.6428 0
      vertex 11.0718 73.6428 15
    endloop
  endfacet
  facet normal 0.951766 -0.306825 0
    outer loop
      vertex 11.0718 73.6428 0
      vertex 10 70.3181 15
      vertex 10 70.3181 0
    endloop
  endfacet
  facet normal 0 0 -1
    outer loop
      vertex 22.8567 87.8974 0
      vertex 19.7955 93.0866 0
      vertex 20.1 95 0
    endloop
  endfacet
  facet normal 0 0 -1
    outer loop
      vertex 22.8567 87.8974 0
      vertex 19.4819 92.5 0
      vertex 19.7955 93.0866 0
    endloop
  endfacet
  facet normal 0 0 -1
    outer loop
      vertex 22.8567 87.8974 0
      vertex 18.9284 91.4645 0
      vertex 19.4819 92.5 0
    endloop
  endfacet
  facet normal 0 0 -1
    outer loop
      vertex 22.8567 87.8974 0
      vertex 18.8593 91.3694 0
      vertex 18.9284 91.4645 0
    endloop
  endfacet
  facet normal 0 0 -1
    outer loop
      vertex 22.8567 87.8974 0
      vertex 17.5616 90.2855 0
      vertex 18.8593 91.3694 0
    endloop
  endfacet
  facet normal 0 0 -1
    outer loop
      vertex 13.9934 85.0663 0
      vertex 17.5616 90.2855 0
      vertex 22.8567 87.8974 0
    endloop
  endfacet
  facet normal 0 0 -1
    outer loop
      vertex 17.5616 90.2855 0
      vertex 13.9934 85.0663 0
      vertex 16.0309 89.9049 0
    endloop
  endfacet
  facet normal -0 0 -1
    outer loop
      vertex 16.0309 89.9049 0
      vertex 13.9934 85.0663 0
      vertex 14.5002 90.2855 0
    endloop
  endfacet
  facet normal 0 0 -1
    outer loop
      vertex 13.9934 85.0663 0
      vertex 14.3884 90.3218 0
      vertex 14.5002 90.2855 0
    endloop
  endfacet
  facet normal 0 0 -1
    outer loop
      vertex 13.9934 85.0663 0
      vertex 13.0907 91.4057 0
      vertex 14.3884 90.3218 0
    endloop
  endfacet
  facet normal 0 0 -1
    outer loop
      vertex 10.0309 92.4049 0
      vertex 13.0907 91.4057 0
      vertex 13.9934 85.0663 0
    endloop
  endfacet
  facet normal 0 0 -1
    outer loop
      vertex 10 92.4149 0
      vertex 13.9934 85.0663 0
      vertex 11.0718 73.6428 0
    endloop
  endfacet
  facet normal 0 0 -1
    outer loop
      vertex 13.0907 91.4057 0
      vertex 10.0309 92.4049 0
      vertex 12.5566 92.4049 0
    endloop
  endfacet
  facet normal 0 0 -1
    outer loop
      vertex 10 92.4149 0
      vertex 11.0718 73.6428 0
      vertex 10 70.3181 0
    endloop
  endfacet
  facet normal 0 0 -1
    outer loop
      vertex 13.9934 85.0663 0
      vertex 10 92.4149 0
      vertex 10.0309 92.4049 0
    endloop
  endfacet
  facet normal 0 0 -1
    outer loop
      vertex 143.289 109.775 0
      vertex 143.286 109.842 0
      vertex 143.29 109.809 0
    endloop
  endfacet
  facet normal 0 0 -1
    outer loop
      vertex 143.282 109.742 0
      vertex 143.286 109.842 0
      vertex 143.289 109.775 0
    endloop
  endfacet
  facet normal 0 0 -1
    outer loop
      vertex 143.282 109.742 0
      vertex 143.276 109.875 0
      vertex 143.286 109.842 0
    endloop
  endfacet
  facet normal 0 0 -1
    outer loop
      vertex 143.269 109.71 0
      vertex 143.276 109.875 0
      vertex 143.282 109.742 0
    endloop
  endfacet
  facet normal 0 0 -1
    outer loop
      vertex 143.269 109.71 0
      vertex 143.261 109.905 0
      vertex 143.276 109.875 0
    endloop
  endfacet
  facet normal 0 0 -1
    outer loop
      vertex 143.252 109.681 0
      vertex 143.261 109.905 0
      vertex 143.269 109.71 0
    endloop
  endfacet
  facet normal 0 0 -1
    outer loop
      vertex 143.252 109.681 0
      vertex 143.241 109.932 0
      vertex 143.261 109.905 0
    endloop
  endfacet
  facet normal 0 0 -1
    outer loop
      vertex 143.229 109.656 0
      vertex 143.241 109.932 0
      vertex 143.252 109.681 0
    endloop
  endfacet
  facet normal 0 0 -1
    outer loop
      vertex 143.229 109.656 0
      vertex 143.216 109.956 0
      vertex 143.241 109.932 0
    endloop
  endfacet
  facet normal 0 0 -1
    outer loop
      vertex 143.203 109.635 0
      vertex 143.216 109.956 0
      vertex 143.229 109.656 0
    endloop
  endfacet
  facet normal 0 0 -1
    outer loop
      vertex 143.203 109.635 0
      vertex 143.188 109.975 0
      vertex 143.216 109.956 0
    endloop
  endfacet
  facet normal 0 0 -1
    outer loop
      vertex 143.203 109.635 0
      vertex 143.157 109.989 0
      vertex 143.188 109.975 0
    endloop
  endfacet
  facet normal 0 0 -1
    outer loop
      vertex 143.203 109.635 0
      vertex 143.124 109.997 0
      vertex 143.157 109.989 0
    endloop
  endfacet
  facet normal 0 0 -1
    outer loop
      vertex 143.203 109.635 0
      vertex 143.091 110 0
      vertex 143.124 109.997 0
    endloop
  endfacet
  facet normal 0 0 -1
    outer loop
      vertex 140.345 108.836 0
      vertex 143.091 110 0
      vertex 143.203 109.635 0
    endloop
  endfacet
  facet normal 0 0 -1
    outer loop
      vertex 133.627 99.0533 0
      vertex 136.403 103.823 0
      vertex 135.856 102.034 0
    endloop
  endfacet
  facet normal 0 0 -1
    outer loop
      vertex 134.694 100.104 0
      vertex 135.856 102.034 0
      vertex 135.382 101.058 0
    endloop
  endfacet
  facet normal 0 0 -1
    outer loop
      vertex 135.856 102.034 0
      vertex 134.694 100.104 0
      vertex 133.627 99.0533 0
    endloop
  endfacet
  facet normal 0 0 -1
    outer loop
      vertex 136.403 103.823 0
      vertex 133.627 99.0533 0
      vertex 131.75 97.7106 0
    endloop
  endfacet
  facet normal -0 0 -1
    outer loop
      vertex 136.403 103.823 0
      vertex 131.75 97.7106 0
      vertex 136.963 106.094 0
    endloop
  endfacet
  facet normal 0 0 -1
    outer loop
      vertex 126.916 95.3314 0
      vertex 136.963 106.094 0
      vertex 131.75 97.7106 0
    endloop
  endfacet
  facet normal 0 0 -1
    outer loop
      vertex 122.151 93.9979 0
      vertex 136.963 106.094 0
      vertex 126.916 95.3314 0
    endloop
  endfacet
  facet normal -0 0 -1
    outer loop
      vertex 136.963 106.094 0
      vertex 122.151 93.9979 0
      vertex 137.218 106.707 0
    endloop
  endfacet
  facet normal 0 0 -1
    outer loop
      vertex 114.925 93.4701 0
      vertex 137.218 106.707 0
      vertex 122.151 93.9979 0
    endloop
  endfacet
  facet normal 0 0 -1
    outer loop
      vertex 122.151 93.9979 0
      vertex 126.916 95.3314 0
      vertex 124.118 94.3393 0
    endloop
  endfacet
  facet normal -0 0 -1
    outer loop
      vertex 137.218 106.707 0
      vertex 114.925 93.4701 0
      vertex 137.47 107.112 0
    endloop
  endfacet
  facet normal 0 0 -1
    outer loop
      vertex 104.731 92.6674 0
      vertex 137.47 107.112 0
      vertex 114.925 93.4701 0
    endloop
  endfacet
  facet normal -0 0 -1
    outer loop
      vertex 137.47 107.112 0
      vertex 104.731 92.6674 0
      vertex 137.764 107.444 0
    endloop
  endfacet
  facet normal -0 0 -1
    outer loop
      vertex 137.764 107.444 0
      vertex 104.731 92.6674 0
      vertex 138.174 107.786 0
    endloop
  endfacet
  facet normal 0 0 -1
    outer loop
      vertex 98.2663 91.7778 0
      vertex 138.174 107.786 0
      vertex 104.731 92.6674 0
    endloop
  endfacet
  facet normal 0 0 -1
    outer loop
      vertex 10 110 0
      vertex 138.174 107.786 0
      vertex 98.2663 91.7778 0
    endloop
  endfacet
  facet normal 0 0 -1
    outer loop
      vertex 138.174 107.786 0
      vertex 10 110 0
      vertex 138.86 108.204 0
    endloop
  endfacet
  facet normal 0 0 -1
    outer loop
      vertex 138.86 108.204 0
      vertex 10 110 0
      vertex 140.345 108.836 0
    endloop
  endfacet
  facet normal 0 0 -1
    outer loop
      vertex 43.4318 91.2927 0
      vertex 98.2663 91.7778 0
      vertex 92.1035 89.8109 0
    endloop
  endfacet
  facet normal 0 0 -1
    outer loop
      vertex 81.9301 77.7887 0
      vertex 83.3887 79.4625 0
      vertex 83.1564 78.9275 0
    endloop
  endfacet
  facet normal 0 0 -1
    outer loop
      vertex 81.0016 77.4048 0
      vertex 83.3887 79.4625 0
      vertex 81.9301 77.7887 0
    endloop
  endfacet
  facet normal 0 0 -1
    outer loop
      vertex 82.4317 78.0946 0
      vertex 83.1564 78.9275 0
      vertex 82.9532 78.6039 0
    endloop
  endfacet
  facet normal 0 0 -1
    outer loop
      vertex 82.4317 78.0946 0
      vertex 82.9532 78.6039 0
      vertex 82.7183 78.3361 0
    endloop
  endfacet
  facet normal 0 0 -1
    outer loop
      vertex 83.1564 78.9275 0
      vertex 82.4317 78.0946 0
      vertex 81.9301 77.7887 0
    endloop
  endfacet
  facet normal -0 0 -1
    outer loop
      vertex 83.3887 79.4625 0
      vertex 81.0016 77.4048 0
      vertex 83.6964 80.5066 0
    endloop
  endfacet
  facet normal 0 0 -1
    outer loop
      vertex 79.5199 76.9618 0
      vertex 83.6964 80.5066 0
      vertex 81.0016 77.4048 0
    endloop
  endfacet
  facet normal -0 0 -1
    outer loop
      vertex 83.6964 80.5066 0
      vertex 79.5199 76.9618 0
      vertex 84.3914 82.8599 0
    endloop
  endfacet
  facet normal 0 0 -1
    outer loop
      vertex 76.1983 76.3906 0
      vertex 84.3914 82.8599 0
      vertex 79.5199 76.9618 0
    endloop
  endfacet
  facet normal 0 0 -1
    outer loop
      vertex 71.9081 76.3602 0
      vertex 84.3914 82.8599 0
      vertex 76.1983 76.3906 0
    endloop
  endfacet
  facet normal -0 0 -1
    outer loop
      vertex 84.3914 82.8599 0
      vertex 71.9081 76.3602 0
      vertex 85.267 84.9479 0
    endloop
  endfacet
  facet normal 0 0 -1
    outer loop
      vertex 65.4226 77.3573 0
      vertex 85.267 84.9479 0
      vertex 71.9081 76.3602 0
    endloop
  endfacet
  facet normal -0 0 -1
    outer loop
      vertex 85.267 84.9479 0
      vertex 65.4226 77.3573 0
      vertex 86.0362 86.1934 0
    endloop
  endfacet
  facet normal 0 0 -1
    outer loop
      vertex 57.8688 79.3607 0
      vertex 86.0362 86.1934 0
      vertex 65.4226 77.3573 0
    endloop
  endfacet
  facet normal 0 0 -1
    outer loop
      vertex 46.1511 89.2505 0
      vertex 86.0362 86.1934 0
      vertex 57.8688 79.3607 0
    endloop
  endfacet
  facet normal 0 0 -1
    outer loop
      vertex 86.0362 86.1934 0
      vertex 46.1511 89.2505 0
      vertex 86.8165 87.0848 0
    endloop
  endfacet
  facet normal 0 0 -1
    outer loop
      vertex 45.6409 89.8812 0
      vertex 86.8165 87.0848 0
      vertex 46.1511 89.2505 0
    endloop
  endfacet
  facet normal 0 0 -1
    outer loop
      vertex 86.8165 87.0848 0
      vertex 45.6409 89.8812 0
      vertex 87.6551 87.7666 0
    endloop
  endfacet
  facet normal 0 0 -1
    outer loop
      vertex 45.0054 90.4542 0
      vertex 87.6551 87.7666 0
      vertex 45.6409 89.8812 0
    endloop
  endfacet
  facet normal 0 0 -1
    outer loop
      vertex 46.5975 88.4634 0
      vertex 57.8688 79.3607 0
      vertex 54.3561 80.6528 0
    endloop
  endfacet
  facet normal 0 0 -1
    outer loop
      vertex 46.5975 88.4634 0
      vertex 54.3561 80.6528 0
      vertex 51.734 82.0384 0
    endloop
  endfacet
  facet normal 0 0 -1
    outer loop
      vertex 47.222 86.9711 0
      vertex 51.734 82.0384 0
      vertex 49.8297 83.4441 0
    endloop
  endfacet
  facet normal 0 0 -1
    outer loop
      vertex 47.222 86.9711 0
      vertex 49.8297 83.4441 0
      vertex 48.665 84.6077 0
    endloop
  endfacet
  facet normal 0 0 -1
    outer loop
      vertex 47.222 86.9711 0
      vertex 48.665 84.6077 0
      vertex 47.8744 85.6771 0
    endloop
  endfacet
  facet normal 0 0 -1
    outer loop
      vertex 51.734 82.0384 0
      vertex 47.222 86.9711 0
      vertex 46.5975 88.4634 0
    endloop
  endfacet
  facet normal 0 0 -1
    outer loop
      vertex 57.8688 79.3607 0
      vertex 46.5975 88.4634 0
      vertex 46.1511 89.2505 0
    endloop
  endfacet
  facet normal 0 0 -1
    outer loop
      vertex 87.6551 87.7666 0
      vertex 45.0054 90.4542 0
      vertex 88.7606 88.4286 0
    endloop
  endfacet
  facet normal 0 0 -1
    outer loop
      vertex 44.2498 90.9425 0
      vertex 88.7606 88.4286 0
      vertex 45.0054 90.4542 0
    endloop
  endfacet
  facet normal 0 0 -1
    outer loop
      vertex 88.7606 88.4286 0
      vertex 44.2498 90.9425 0
      vertex 92.1035 89.8109 0
    endloop
  endfacet
  facet normal 0 0 -1
    outer loop
      vertex 43.4318 91.2927 0
      vertex 92.1035 89.8109 0
      vertex 44.2498 90.9425 0
    endloop
  endfacet
  facet normal -0 0 -1
    outer loop
      vertex 98.2663 91.7778 0
      vertex 43.4318 91.2927 0
      vertex 10 110 0
    endloop
  endfacet
  facet normal 0 0 -1
    outer loop
      vertex 10 110 0
      vertex 43.4318 91.2927 0
      vertex 42.6065 91.4984 0
    endloop
  endfacet
  facet normal 0 0 -1
    outer loop
      vertex 10 110 0
      vertex 42.6065 91.4984 0
      vertex 41.2914 91.618 0
    endloop
  endfacet
  facet normal 0 0 -1
    outer loop
      vertex 10 110 0
      vertex 41.2914 91.618 0
      vertex 39.6226 91.5576 0
    endloop
  endfacet
  facet normal 0 0 -1
    outer loop
      vertex 18.9284 98.5355 0
      vertex 39.6226 91.5576 0
      vertex 33.907 90.71 0
    endloop
  endfacet
  facet normal 0 0 -1
    outer loop
      vertex 20.1 95 0
      vertex 33.907 90.71 0
      vertex 22.8567 87.8974 0
    endloop
  endfacet
  facet normal 0 0 -1
    outer loop
      vertex 19.7955 96.9134 0
      vertex 33.907 90.71 0
      vertex 20.1 95 0
    endloop
  endfacet
  facet normal 0 0 -1
    outer loop
      vertex 19.4819 97.5 0
      vertex 33.907 90.71 0
      vertex 19.7955 96.9134 0
    endloop
  endfacet
  facet normal 0 0 -1
    outer loop
      vertex 18.9284 98.5355 0
      vertex 33.907 90.71 0
      vertex 19.4819 97.5 0
    endloop
  endfacet
  facet normal 0 0 -1
    outer loop
      vertex 39.6226 91.5576 0
      vertex 18.9284 98.5355 0
      vertex 18.8593 98.6306 0
    endloop
  endfacet
  facet normal 0 0 -1
    outer loop
      vertex 39.6226 91.5576 0
      vertex 18.8593 98.6306 0
      vertex 10 110 0
    endloop
  endfacet
  facet normal 0 0 -1
    outer loop
      vertex 10 110 0
      vertex 18.8593 98.6306 0
      vertex 17.5616 99.7145 0
    endloop
  endfacet
  facet normal 0 0 -1
    outer loop
      vertex 10 110 0
      vertex 17.5616 99.7145 0
      vertex 16.0309 100.095 0
    endloop
  endfacet
  facet normal 0 0 -1
    outer loop
      vertex 10.0309 97.5951 0
      vertex 13.0907 98.5943 0
      vertex 12.5566 97.5951 0
    endloop
  endfacet
  facet normal 0 0 -1
    outer loop
      vertex 10 110 0
      vertex 13.0907 98.5943 0
      vertex 10.0309 97.5951 0
    endloop
  endfacet
  facet normal 0 0 -1
    outer loop
      vertex 10 110 0
      vertex 10.0309 97.5951 0
      vertex 10 97.5851 0
    endloop
  endfacet
  facet normal 0 0 -1
    outer loop
      vertex 140.345 108.836 0
      vertex 10 110 0
      vertex 143.091 110 0
    endloop
  endfacet
  facet normal 0 0 -1
    outer loop
      vertex 14.5002 99.7145 0
      vertex 10 110 0
      vertex 16.0309 100.095 0
    endloop
  endfacet
  facet normal 0 0 -1
    outer loop
      vertex 14.3884 99.6782 0
      vertex 10 110 0
      vertex 14.5002 99.7145 0
    endloop
  endfacet
  facet normal 0 0 -1
    outer loop
      vertex 13.0907 98.5943 0
      vertex 10 110 0
      vertex 14.3884 99.6782 0
    endloop
  endfacet
  facet normal -1 0 0
    outer loop
      vertex 10 110 0
      vertex 10 108 2
      vertex 10 110 15
    endloop
  endfacet
  facet normal -1 0 0
    outer loop
      vertex 10 97.5851 0
      vertex 10 108 2
      vertex 10 110 0
    endloop
  endfacet
  facet normal -1 -0 0
    outer loop
      vertex 10 108 2
      vertex 10 97.5851 0
      vertex 10 97.5851 2
    endloop
  endfacet
  facet normal -1 -0 0
    outer loop
      vertex 10 110 15
      vertex 10 108 2
      vertex 10 108 15
    endloop
  endfacet
  facet normal -1 0 0
    outer loop
      vertex 10 92.4149 0
      vertex 10 77.5237 2
      vertex 10 92.4149 2
    endloop
  endfacet
  facet normal -1 0 0
    outer loop
      vertex 10 70.3181 0
      vertex 10 77.5237 2
      vertex 10 92.4149 0
    endloop
  endfacet
  facet normal -1 0 0
    outer loop
      vertex 10 70.3181 15
      vertex 10 77.5237 2
      vertex 10 70.3181 0
    endloop
  endfacet
  facet normal -1 0 0
    outer loop
      vertex 10 77.5237 2
      vertex 10 70.3181 15
      vertex 10 77.5237 15
    endloop
  endfacet
  facet normal -0.987573 -0.157163 0
    outer loop
      vertex 20.1 95 0
      vertex 19.7955 96.9134 2
      vertex 19.7955 96.9134 0
    endloop
  endfacet
  facet normal -0.987573 -0.157163 0
    outer loop
      vertex 19.7955 96.9134 2
      vertex 20.1 95 0
      vertex 20.1 95 2
    endloop
  endfacet
  facet normal 0.307902 -0.951418 0
    outer loop
      vertex 10 97.5851 0
      vertex 10.0309 97.5951 2
      vertex 10 97.5851 2
    endloop
  endfacet
  facet normal 0.307902 -0.951418 0
    outer loop
      vertex 10.0309 97.5951 2
      vertex 10 97.5851 0
      vertex 10.0309 97.5951 0
    endloop
  endfacet
  facet normal 0 -1 0
    outer loop
      vertex 10.0309 97.5951 0
      vertex 12.5566 97.5951 2
      vertex 10.0309 97.5951 2
    endloop
  endfacet
  facet normal 0 -1 -0
    outer loop
      vertex 12.5566 97.5951 2
      vertex 10.0309 97.5951 0
      vertex 12.5566 97.5951 0
    endloop
  endfacet
  facet normal -0.881886 0.471462 0
    outer loop
      vertex 19.4819 92.5 0
      vertex 19.7955 93.0866 2
      vertex 19.7955 93.0866 0
    endloop
  endfacet
  facet normal -0.881886 0.471462 0
    outer loop
      vertex 19.7955 93.0866 2
      vertex 19.4819 92.5 0
      vertex 19.4819 92.5 2
    endloop
  endfacet
  facet normal 0 1 -0
    outer loop
      vertex 12.5566 92.4049 0
      vertex 10.0309 92.4049 2
      vertex 12.5566 92.4049 2
    endloop
  endfacet
  facet normal 0 1 0
    outer loop
      vertex 10.0309 92.4049 2
      vertex 12.5566 92.4049 0
      vertex 10.0309 92.4049 0
    endloop
  endfacet
  facet normal 0.307902 0.951418 -0
    outer loop
      vertex 10.0309 92.4049 0
      vertex 10 92.4149 2
      vertex 10.0309 92.4049 2
    endloop
  endfacet
  facet normal 0.307902 0.951418 0
    outer loop
      vertex 10 92.4149 2
      vertex 10.0309 92.4049 0
      vertex 10 92.4149 0
    endloop
  endfacet
  facet normal -0.881886 -0.471462 0
    outer loop
      vertex 19.7955 96.9134 0
      vertex 19.4819 97.5 2
      vertex 19.4819 97.5 0
    endloop
  endfacet
  facet normal -0.881886 -0.471462 0
    outer loop
      vertex 19.4819 97.5 2
      vertex 19.7955 96.9134 0
      vertex 19.7955 96.9134 2
    endloop
  endfacet
  facet normal -0.987573 0.157163 0
    outer loop
      vertex 19.7955 93.0866 0
      vertex 20.1 95 2
      vertex 20.1 95 0
    endloop
  endfacet
  facet normal -0.987573 0.157163 0
    outer loop
      vertex 20.1 95 2
      vertex 19.7955 93.0866 0
      vertex 19.7955 93.0866 2
    endloop
  endfacet
  facet normal -0.641051 0.767498 0
    outer loop
      vertex 18.8593 91.3694 0
      vertex 17.5616 90.2855 2
      vertex 18.8593 91.3694 2
    endloop
  endfacet
  facet normal -0.641051 0.767498 0
    outer loop
      vertex 17.5616 90.2855 2
      vertex 18.8593 91.3694 0
      vertex 17.5616 90.2855 0
    endloop
  endfacet
  facet normal 0.881915 0.471408 0
    outer loop
      vertex 13.0907 91.4057 2
      vertex 12.5566 92.4049 0
      vertex 12.5566 92.4049 2
    endloop
  endfacet
  facet normal 0.881915 0.471408 0
    outer loop
      vertex 12.5566 92.4049 0
      vertex 13.0907 91.4057 2
      vertex 13.0907 91.4057 0
    endloop
  endfacet
  facet normal -0.241297 0.970451 0
    outer loop
      vertex 17.5616 90.2855 0
      vertex 16.0309 89.9049 2
      vertex 17.5616 90.2855 2
    endloop
  endfacet
  facet normal -0.241297 0.970451 0
    outer loop
      vertex 16.0309 89.9049 2
      vertex 17.5616 90.2855 0
      vertex 16.0309 89.9049 0
    endloop
  endfacet
  facet normal 0.308817 0.951122 -0
    outer loop
      vertex 14.5002 90.2855 0
      vertex 14.3884 90.3218 2
      vertex 14.5002 90.2855 2
    endloop
  endfacet
  facet normal 0.308817 0.951122 0
    outer loop
      vertex 14.3884 90.3218 2
      vertex 14.5002 90.2855 0
      vertex 14.3884 90.3218 0
    endloop
  endfacet
  facet normal 0.241297 0.970451 -0
    outer loop
      vertex 16.0309 89.9049 0
      vertex 14.5002 90.2855 2
      vertex 16.0309 89.9049 2
    endloop
  endfacet
  facet normal 0.241297 0.970451 0
    outer loop
      vertex 14.5002 90.2855 2
      vertex 16.0309 89.9049 0
      vertex 14.5002 90.2855 0
    endloop
  endfacet
  facet normal 0.641051 0.767498 -0
    outer loop
      vertex 14.3884 90.3218 0
      vertex 13.0907 91.4057 2
      vertex 14.3884 90.3218 2
    endloop
  endfacet
  facet normal 0.641051 0.767498 0
    outer loop
      vertex 13.0907 91.4057 2
      vertex 14.3884 90.3218 0
      vertex 13.0907 91.4057 0
    endloop
  endfacet
  facet normal -0.808994 0.587818 0
    outer loop
      vertex 18.8593 91.3694 0
      vertex 18.9284 91.4645 2
      vertex 18.9284 91.4645 0
    endloop
  endfacet
  facet normal -0.808994 0.587818 0
    outer loop
      vertex 18.9284 91.4645 2
      vertex 18.8593 91.3694 0
      vertex 18.8593 91.3694 2
    endloop
  endfacet
  facet normal -0.881916 0.471406 0
    outer loop
      vertex 18.9284 91.4645 0
      vertex 19.4819 92.5 2
      vertex 19.4819 92.5 0
    endloop
  endfacet
  facet normal -0.881916 0.471406 0
    outer loop
      vertex 19.4819 92.5 2
      vertex 18.9284 91.4645 0
      vertex 18.9284 91.4645 2
    endloop
  endfacet
  facet normal 0.308817 -0.951122 0
    outer loop
      vertex 14.3884 99.6782 0
      vertex 14.5002 99.7145 2
      vertex 14.3884 99.6782 2
    endloop
  endfacet
  facet normal 0.308817 -0.951122 0
    outer loop
      vertex 14.5002 99.7145 2
      vertex 14.3884 99.6782 0
      vertex 14.5002 99.7145 0
    endloop
  endfacet
  facet normal 0.881915 -0.471408 0
    outer loop
      vertex 12.5566 97.5951 2
      vertex 13.0907 98.5943 0
      vertex 13.0907 98.5943 2
    endloop
  endfacet
  facet normal 0.881915 -0.471408 0
    outer loop
      vertex 13.0907 98.5943 0
      vertex 12.5566 97.5951 2
      vertex 12.5566 97.5951 0
    endloop
  endfacet
  facet normal -0.641051 -0.767498 0
    outer loop
      vertex 17.5616 99.7145 0
      vertex 18.8593 98.6306 2
      vertex 17.5616 99.7145 2
    endloop
  endfacet
  facet normal -0.641051 -0.767498 -0
    outer loop
      vertex 18.8593 98.6306 2
      vertex 17.5616 99.7145 0
      vertex 18.8593 98.6306 0
    endloop
  endfacet
  facet normal -0.241238 -0.970466 0
    outer loop
      vertex 16.0309 100.095 0
      vertex 17.5616 99.7145 2
      vertex 16.0309 100.095 2
    endloop
  endfacet
  facet normal -0.241238 -0.970466 -0
    outer loop
      vertex 17.5616 99.7145 2
      vertex 16.0309 100.095 0
      vertex 17.5616 99.7145 0
    endloop
  endfacet
  facet normal 0.241238 -0.970466 0
    outer loop
      vertex 14.5002 99.7145 0
      vertex 16.0309 100.095 2
      vertex 14.5002 99.7145 2
    endloop
  endfacet
  facet normal 0.241238 -0.970466 0
    outer loop
      vertex 16.0309 100.095 2
      vertex 14.5002 99.7145 0
      vertex 16.0309 100.095 0
    endloop
  endfacet
  facet normal -0.808994 -0.587818 0
    outer loop
      vertex 18.9284 98.5355 0
      vertex 18.8593 98.6306 2
      vertex 18.8593 98.6306 0
    endloop
  endfacet
  facet normal -0.808994 -0.587818 0
    outer loop
      vertex 18.8593 98.6306 2
      vertex 18.9284 98.5355 0
      vertex 18.9284 98.5355 2
    endloop
  endfacet
  facet normal -0.881916 -0.471406 0
    outer loop
      vertex 19.4819 97.5 0
      vertex 18.9284 98.5355 2
      vertex 18.9284 98.5355 0
    endloop
  endfacet
  facet normal -0.881916 -0.471406 0
    outer loop
      vertex 18.9284 98.5355 2
      vertex 19.4819 97.5 0
      vertex 19.4819 97.5 2
    endloop
  endfacet
  facet normal 0.641051 -0.767498 0
    outer loop
      vertex 13.0907 98.5943 0
      vertex 14.3884 99.6782 2
      vertex 13.0907 98.5943 2
    endloop
  endfacet
  facet normal 0.641051 -0.767498 0
    outer loop
      vertex 14.3884 99.6782 2
      vertex 13.0907 98.5943 0
      vertex 14.3884 99.6782 0
    endloop
  endfacet
endsolid OpenSCAD_Model
